<?xml version="1.0" standalone="no"?>
<!DOCTYPE svg PUBLIC "-//W3C//DTD SVG 20010904//EN"
 "http://www.w3.org/TR/2001/REC-SVG-20010904/DTD/svg10.dtd">
<svg version="1.0" xmlns="http://www.w3.org/2000/svg"
 width="12410.000000pt" height="2906.000000pt" viewBox="0 0 12410.000000 2906.000000"
 preserveAspectRatio="xMidYMid meet">

<g transform="translate(0.000000,2906.000000) scale(0.100000,-0.100000)"
fill="#000000" stroke="none">
<path d="M6550 28175 l0 -95 -450 0 -450 0 0 -130 0 -130 -295 0 -295 0 0 -95
0 -95 -175 0 -175 0 0 -145 0 -145 -235 0 -235 0 0 -165 0 -165 -205 0 -205 0
0 -70 0 -70 -160 0 -160 0 0 -145 0 -145 -190 0 -190 0 0 -35 0 -35 -60 0 -60
0 0 -135 0 -135 -40 0 -40 0 0 -125 0 -125 -250 0 -250 0 0 -100 0 -100 -115
0 -115 0 0 -120 0 -120 -60 0 -60 0 0 -145 0 -145 -45 0 -45 0 0 -100 0 -100
-120 0 -120 0 0 -230 0 -230 -85 0 -85 0 0 -175 0 -175 -115 0 -115 0 0 -195
c0 -174 -6 -224 -23 -182 -4 10 -6 10 -6 0 -1 -9 -17 -13 -46 -13 l-45 0 0
-230 0 -230 -55 0 -55 0 0 -260 0 -260 -90 0 -90 0 0 -579 c0 -318 -3 -594 -7
-612 l-7 -34 -7 35 -6 35 -2 -33 c-1 -22 -5 -32 -13 -29 -7 2 -12 12 -12 21 1
9 -2 16 -6 16 -4 0 -11 15 -15 33 -4 17 -9 26 -12 20 -7 -20 -23 -15 -23 7 0
11 -4 20 -10 20 -5 0 -10 -21 -10 -47 0 -27 -4 -52 -8 -58 -11 -16 -54 -18
-63 -3 -5 7 -9 -327 -9 -744 l0 -757 103 -3 102 -3 5 -650 5 -650 88 -3 87 -3
1 -202 c0 -111 3 -196 6 -189 4 10 8 10 21 0 12 -10 16 -10 19 0 3 6 18 12 34
12 l29 0 0 -370 0 -370 60 0 60 0 0 -270 0 -270 84 0 c92 0 97 -3 95 -63 -1
-18 -3 -24 -6 -14 -2 9 -9 17 -14 17 -6 0 -6 -7 -1 -17 6 -10 13 -37 16 -59 5
-30 14 -44 32 -52 l24 -12 0 -167 0 -168 82 0 83 0 2 -85 c1 -47 2 -147 2
-222 l1 -138 120 0 120 0 0 -195 0 -195 45 0 45 0 0 -135 0 -135 60 0 60 0 0
-105 0 -105 115 0 115 0 0 -255 0 -255 85 0 85 0 0 -171 0 -170 28 3 c23 3 27
-1 27 -22 0 -21 -4 -25 -27 -23 -27 2 -28 0 -28 -40 l0 -43 35 4 35 4 0 -41 0
-42 130 3 130 3 0 -112 0 -113 40 0 40 0 0 -105 0 -105 60 0 60 0 0 -130 0
-130 100 0 100 0 0 -110 0 -110 90 0 90 0 0 -90 0 -90 100 0 100 0 0 -140 0
-140 60 0 60 0 0 -225 0 -225 105 0 105 0 0 -145 0 -145 100 0 100 0 0 -95 0
-95 100 0 100 0 0 -160 0 -160 135 0 135 0 0 -90 0 -90 55 0 55 0 0 -135 0
-135 120 0 120 0 0 -135 0 -135 113 0 112 0 3 -70 c3 -74 0 -78 -54 -71 -7 1
-14 -6 -18 -14 -4 -11 -1 -16 12 -14 35 3 46 -4 17 -11 -25 -6 -18 -8 41 -15
66 -7 71 -9 69 -30 -2 -12 1 -28 6 -36 7 -12 9 -12 9 1 0 12 2 12 9 1 13 -20
24 4 17 35 -4 14 -2 24 4 24 8 0 10 -31 8 -95 l-3 -95 123 0 122 0 0 -105 0
-105 25 0 25 0 0 -135 0 -135 120 0 120 0 0 -100 0 -100 60 0 60 0 0 -95 0
-95 85 0 85 0 0 -165 0 -165 160 0 160 0 0 -65 0 -65 40 0 40 0 0 -150 0 -150
135 0 135 0 0 -130 0 -130 90 0 90 0 0 -95 0 -95 130 0 130 0 0 -145 0 -145
65 0 65 0 0 -105 0 -105 93 -1 c50 0 86 -3 80 -6 -7 -2 -13 -18 -13 -34 0 -31
2 -31 71 -13 14 4 16 -4 13 -51 -4 -63 11 -83 21 -27 3 21 5 43 4 48 -4 21 2
30 22 31 19 2 20 -2 17 -113 l-3 -114 248 0 247 0 0 140 0 140 25 0 25 0 0
250 0 250 50 0 50 0 0 95 0 95 145 0 145 0 0 135 0 135 25 0 c16 0 25 6 25 16
0 8 -4 13 -9 10 -5 -4 -7 3 -4 14 4 14 0 20 -11 20 -11 0 -14 -5 -10 -12 4 -7
3 -8 -4 -4 -8 5 -12 47 -12 127 l0 119 100 0 100 0 0 65 0 65 105 0 105 0 0
165 0 165 25 0 c25 0 25 0 25 95 l0 95 45 0 45 0 0 100 0 100 115 0 115 0 0
240 0 240 60 0 60 0 0 95 0 95 165 0 165 0 0 100 0 100 40 0 40 0 0 135 0 135
90 0 90 0 0 135 0 135 100 0 100 0 0 250 0 250 135 0 135 0 0 95 0 95 85 0 85
0 0 145 0 145 75 0 75 0 0 219 c0 151 4 222 11 227 6 3 15 0 20 -7 6 -10 9
-11 9 -1 0 7 14 12 35 12 l35 0 0 140 0 140 115 0 115 0 0 90 0 90 105 0 105
0 0 110 0 110 60 0 60 0 0 235 0 235 60 0 60 0 0 110 0 110 210 0 210 0 0
-110 0 -110 110 0 110 0 0 -105 0 -105 70 0 70 0 0 -130 0 -129 83 -3 c74 -3
82 -5 83 -23 1 -11 2 -100 3 -197 l1 -178 50 0 50 0 0 -140 0 -140 40 0 40 0
0 -225 c0 -152 3 -225 11 -225 5 0 7 5 3 11 -5 8 -1 8 14 0 11 -6 68 -11 126
-11 l106 0 0 -145 0 -145 135 0 135 0 0 -95 0 -95 105 0 105 0 0 -160 c0 -100
4 -160 10 -160 6 0 10 -37 10 -90 l0 -90 90 0 90 0 0 -135 0 -135 120 0 120 0
0 -135 0 -135 195 0 195 0 0 -100 0 -100 355 0 355 0 0 100 0 100 90 0 90 0 0
135 0 135 85 0 85 0 0 135 0 135 145 0 145 0 0 250 0 250 50 0 50 0 0 240 0
240 110 0 110 0 0 365 0 365 30 0 30 0 0 201 0 201 70 -4 70 -3 0 238 0 237
105 0 105 0 0 255 0 255 175 0 175 0 0 260 0 260 105 0 105 0 0 225 0 225 25
0 25 0 0 330 0 330 60 0 60 0 0 219 c0 155 3 222 12 227 7 5 8 3 3 -7 -7 -11
-6 -12 7 -2 20 17 28 7 28 -34 0 -27 4 -33 21 -33 19 0 21 5 17 40 l-4 40 153
0 153 0 0 -95 0 -95 85 0 85 0 0 -225 0 -225 100 0 100 0 0 -340 0 -340 60 0
60 0 0 -255 0 -255 130 0 130 0 0 -270 0 -270 105 0 105 0 0 -215 0 -215 75 0
75 0 0 -240 0 -240 40 0 40 0 0 -230 0 -230 70 0 70 0 0 -225 0 -225 120 0
120 0 1 -247 c0 -137 3 -255 7 -264 5 -10 23 -16 56 -18 43 -2 48 -1 38 12
-18 21 5 36 46 30 23 -4 32 -10 28 -19 -3 -8 1 -14 10 -14 8 0 13 -4 10 -9 -3
-4 5 -6 18 -4 l23 5 2 -298 c1 -251 3 -300 16 -313 26 -26 37 0 33 83 -2 64
-1 76 12 74 18 -4 19 -17 19 -435 l1 -303 60 0 60 0 0 -200 0 -200 75 0 75 0
0 -235 0 -235 115 0 115 0 0 -260 0 -260 130 0 130 0 0 -215 0 -215 85 0 85 0
0 -225 0 -225 105 0 105 0 0 -250 0 -250 25 0 25 0 0 -340 0 -340 53 0 c29 0
59 6 66 13 9 8 12 8 7 0 -5 -9 43 -12 189 -13 l195 -1 0 76 0 75 145 0 145 0
0 125 0 125 25 0 25 0 0 140 c0 107 3 140 13 139 6 -1 94 -1 195 0 l182 1 0
105 0 105 85 0 85 0 0 145 0 145 105 0 105 0 0 95 0 95 40 0 40 0 0 130 0 130
193 1 c105 1 198 1 205 0 9 -1 12 34 12 149 l0 150 100 0 100 0 0 65 0 65 90
0 90 0 0 165 0 165 30 0 30 0 0 95 0 95 85 0 85 0 0 100 0 100 150 0 150 0 0
135 0 135 70 0 70 0 0 105 0 105 70 0 70 0 0 95 0 95 35 0 c34 0 35 -1 35 -38
l0 -38 40 4 c28 3 40 9 41 21 1 9 2 23 3 31 1 12 20 16 85 20 79 5 85 7 86 28
1 12 -2 22 -7 22 -4 0 -8 -4 -8 -10 0 -5 -4 -10 -10 -10 -5 0 -7 7 -4 15 4 8
12 15 20 15 11 0 14 17 14 70 l0 70 103 1 c56 1 108 1 115 0 9 -1 12 31 12
134 l0 135 70 0 70 0 0 135 0 135 120 0 120 0 0 90 0 90 100 0 100 0 0 160 0
160 60 0 60 0 0 95 0 95 60 0 60 0 0 145 0 145 100 0 100 0 0 130 0 130 60 0
c48 0 60 3 60 16 0 8 5 12 10 9 6 -4 8 -11 5 -16 -4 -5 1 -9 9 -9 13 0 16 16
16 95 l0 95 34 0 c40 0 50 11 41 47 -5 22 -10 25 -40 21 -34 -4 -35 -3 -35 33
0 21 5 41 10 44 6 3 10 1 10 -4 0 -17 46 -13 49 4 1 8 2 24 3 36 2 17 8 20 30
17 l28 -5 0 134 0 133 165 0 165 0 0 110 0 110 40 0 40 0 0 130 0 130 105 0
105 0 0 105 0 105 60 0 60 0 0 109 0 110 36 3 c35 3 37 5 41 41 l4 37 -41 0
-40 0 0 60 c0 57 13 81 23 43 3 -13 5 -11 6 6 1 20 5 22 26 17 l25 -6 0 170 0
170 135 0 135 0 0 135 0 135 45 0 45 0 0 225 0 225 130 0 130 0 0 135 0 135
100 0 100 0 0 195 0 195 40 0 40 0 0 166 0 167 30 -6 c28 -6 30 -5 30 25 0 29
-1 30 -13 14 -11 -15 -12 -11 -8 31 6 47 7 48 41 48 33 0 35 -2 38 -37 3 -34
6 -38 32 -38 16 0 35 -3 44 -6 14 -5 16 13 16 170 l0 176 100 0 100 0 2 403 3
402 78 3 77 3 0 244 c0 224 1 244 18 248 16 4 16 5 0 6 -31 2 -19 21 12 21 19
0 30 -5 29 -12 -6 -46 -2 -49 69 -46 l67 3 3 418 2 417 45 0 45 0 0 510 c0
481 1 509 18 504 16 -5 16 -5 0 6 -10 6 -15 17 -11 26 5 13 7 13 14 2 7 -10 9
-10 9 0 0 7 13 12 31 12 17 0 28 -4 24 -10 -3 -5 0 -10 7 -10 10 0 10 -2 -1
-9 -11 -7 -7 -11 15 -14 17 -3 9 -5 -18 -4 -25 1 -44 -1 -41 -5 6 -10 155 -10
168 0 6 4 10 14 10 22 0 8 -4 18 -10 22 -6 5 -5 8 2 8 10 0 13 199 13 920 l0
920 -115 0 -115 0 0 470 0 470 -45 0 -45 0 0 375 0 375 -100 0 -100 0 0 115 0
115 -32 1 c-18 1 -51 1 -73 0 -28 -1 -36 1 -26 7 7 6 11 14 8 19 -12 20 11 32
65 35 56 3 56 3 53 33 -1 17 -3 32 -4 35 0 3 -30 7 -65 8 -69 2 -86 -10 -66
-48 8 -16 8 -18 -5 -14 -18 7 -21 74 -3 74 6 0 8 3 5 7 -4 3 -2 12 5 20 8 11
7 12 -6 7 -14 -5 -16 6 -16 100 l0 106 -100 0 -100 0 0 270 0 270 -105 0 -105
0 0 135 0 135 -40 0 -40 0 0 100 0 100 -100 0 -100 0 0 145 0 145 -130 0 -130
0 0 120 0 120 -45 0 -45 0 0 100 0 100 -156 0 c-121 0 -154 3 -148 13 6 10 4
10 -7 0 -7 -7 -20 -13 -28 -13 -11 0 -10 4 5 15 13 11 14 14 4 13 -12 -3 -15
16 -18 110 l-3 112 -59 0 -60 0 0 135 0 135 -105 0 -105 0 0 35 0 35 -205 0
-205 0 0 145 0 145 -145 0 -145 0 0 70 0 70 -160 0 -160 0 0 165 0 165 -160 0
-160 0 0 145 0 145 -305 0 -305 0 0 95 0 95 -235 0 -235 0 0 130 0 130 -362 1
c-200 0 -389 0 -420 -1 -53 -1 -58 0 -63 23 -4 14 -5 57 -3 96 l3 71 -1912 0
-1913 0 0 -95 0 -95 -600 0 -600 0 0 95 0 95 -465 0 -465 0 0 -95 0 -95 -105
0 -105 0 0 -130 0 -130 -175 0 -175 0 0 -95 0 -95 -105 0 -105 0 0 -1272 c0
-1059 2 -1269 13 -1254 20 27 56 13 49 -19 -4 -25 -4 -25 72 -25 l76 0 0 -135
0 -135 175 0 175 0 0 -95 0 -95 148 -1 c81 -1 150 -1 155 0 4 0 7 -10 7 -23 0
-21 6 -25 33 -28 l32 -3 3 -101 c3 -101 3 -102 -22 -106 -14 -3 -23 -2 -21 3
3 4 -4 5 -15 2 -18 -5 -21 -12 -18 -47 l3 -41 258 -3 c169 -1 257 1 257 8 0 5
5 10 11 10 5 0 7 -4 4 -10 -3 -5 -1 -10 4 -10 6 0 11 4 11 10 0 5 7 7 15 4 12
-5 15 2 15 30 0 33 2 36 30 36 l30 0 0 99 c0 55 -4 102 -9 105 -18 11 -36 -28
-36 -78 0 -42 3 -52 20 -58 11 -3 -5 -6 -37 -7 -57 -1 -58 -2 -58 -30 0 -23
-5 -30 -25 -33 -23 -5 -25 -2 -25 28 0 31 8 39 32 35 8 -1 17 43 20 104 3 39
4 40 38 40 28 0 35 4 36 20 1 11 2 26 3 33 1 9 44 12 181 12 l180 0 0 95 0 95
130 0 130 0 0 135 0 135 105 0 105 0 0 245 0 245 75 0 75 0 0 220 0 220 110 0
110 0 0 125 0 125 453 1 c248 1 463 5 477 10 l25 9 -27 -4 c-15 -2 -25 1 -22
5 3 5 -1 21 -9 36 l-14 27 -13 -24 -12 -23 -14 24 c-7 13 -13 48 -14 77 l0 52
39 0 c22 0 44 -6 51 -15 10 -12 10 -15 -1 -15 -9 -1 -8 -5 5 -15 17 -13 18
-15 3 -15 -9 0 -17 -4 -17 -10 0 -6 32 -10 76 -10 l75 0 -3 38 c-3 34 -6 37
-35 40 -20 2 -33 10 -36 20 -3 12 -5 10 -6 -5 -2 -36 -21 -27 -22 10 l-1 32
-9 -32 c-14 -48 -33 -42 -25 6 4 27 2 41 -7 44 -6 3 543 5 1221 6 l1232 2 0
-136 0 -135 435 0 435 0 0 -125 0 -125 265 0 265 0 0 -100 0 -100 245 0 245 0
0 -120 0 -120 175 0 175 0 0 -145 0 -145 190 0 190 0 0 -100 0 -100 120 0 120
0 0 -40 c0 -33 -3 -40 -20 -40 -18 0 -20 -7 -20 -59 0 -54 2 -59 20 -54 17 5
20 0 20 -33 0 -30 -3 -35 -12 -26 -16 16 -31 15 -26 0 5 -13 21 -14 176 -17
l62 -1 0 -95 0 -95 100 0 100 0 0 -175 0 -175 80 0 80 0 0 -100 0 -100 65 0
65 0 0 -95 0 -95 165 0 165 0 0 -115 0 -115 40 0 40 0 0 -265 0 -265 105 0
105 0 0 -110 0 -110 60 0 60 0 0 -405 0 -405 40 0 40 0 0 -1275 0 -1275 -40 0
-40 0 0 -330 0 -330 -60 0 -60 0 0 -190 0 -190 -100 0 c-72 0 -102 -4 -105
-12 -3 -7 -6 -172 -7 -367 -2 -273 -6 -355 -15 -359 -10 -3 -13 16 -15 70 -1
65 -2 68 -8 28 -5 -34 -8 -41 -14 -27 -5 9 -6 29 -3 43 2 15 0 23 -6 21 -13
-4 -13 0 -15 -269 l-2 -208 -165 0 -165 0 0 -235 0 -235 -65 0 -65 0 0 -225 0
-225 -80 0 -80 0 0 -130 0 -130 -100 0 -100 0 0 -195 0 -195 -60 0 -60 0 0
-135 0 -135 -60 0 -60 0 0 -105 0 -105 -100 0 -100 0 0 -255 0 -255 -120 0
-120 0 0 -125 0 -125 -70 0 -70 0 0 -145 0 -145 -115 0 -115 0 0 -110 0 -110
-60 0 -60 0 0 -105 0 -105 -105 0 -105 0 0 -130 0 -130 -70 0 -70 0 0 -110 0
-110 -70 0 -70 0 0 -90 0 -90 -150 0 -150 0 0 -140 0 -140 -85 0 -85 0 0 -95
0 -95 -30 0 -30 0 0 -130 0 -130 -90 0 -90 0 0 -145 0 -145 -100 0 -100 0 0
-95 0 -95 -100 0 -100 0 0 -160 0 -160 -105 0 -105 0 0 -90 0 -90 -40 0 -40 0
0 -135 0 -135 -105 0 -105 0 0 -135 0 -134 -157 -3 -158 -3 -3 -27 c-2 -20 1
-28 12 -28 12 0 16 -10 16 -40 0 -29 -4 -40 -15 -40 -10 0 -15 -10 -15 -30 l0
-30 -120 0 -120 0 0 235 0 235 -25 0 -25 0 0 385 0 385 -145 0 -145 0 0 240 0
240 -75 0 -75 0 0 225 0 225 -85 0 -85 0 0 230 0 230 -95 0 -95 0 0 240 0 240
-25 0 -25 0 0 215 0 215 -105 0 -105 0 0 270 0 270 -85 0 -85 0 0 360 0 360
-130 0 -130 0 0 235 0 235 -115 0 -115 0 0 225 0 225 -75 0 -75 0 0 225 0 225
-60 0 -60 0 0 235 0 235 -40 0 -40 0 0 265 0 264 -117 3 -118 3 -3 93 -3 92
33 -2 c27 -3 33 1 39 22 6 21 7 19 9 -15 1 -32 3 -36 10 -20 18 42 12 75 -17
86 -15 5 -38 8 -50 4 l-23 -5 0 240 0 240 -120 0 -120 0 0 185 0 185 -70 0
-70 0 0 240 0 240 -40 0 -40 0 0 260 0 260 -75 0 -75 0 0 240 0 240 -105 0
-105 0 0 130 0 130 -130 0 -130 0 0 95 0 95 -60 0 -60 0 0 125 0 125 -445 0
c-386 0 -446 -2 -451 -15 -4 -8 -10 -12 -15 -9 -5 3 -7 10 -4 15 4 5 2 9 -4 9
-5 0 -9 -9 -8 -20 1 -11 8 -20 16 -20 11 0 11 -3 -3 -13 -17 -13 -17 -14 -1
-31 14 -14 20 -15 26 -4 6 8 8 -2 8 -27 0 -23 -3 -33 -7 -25 -4 8 -12 16 -19
17 -13 3 -28 -35 -18 -45 6 -7 10 -8 36 -11 16 -2 6 -66 -11 -67 -8 -1 -66 -2
-127 -3 l-113 -1 0 -95 0 -95 -175 0 -175 0 0 -305 0 -305 -105 0 -105 0 0
-234 c0 -214 -6 -267 -25 -236 -7 11 -74 14 -99 4 -12 -5 -16 -21 -16 -75 0
-62 2 -69 20 -69 12 0 20 -7 20 -17 0 -15 -2 -16 -10 -3 -9 13 -10 13 -10 0 0
-13 -1 -13 -10 0 -6 10 -10 -39 -10 -147 l0 -162 -27 -3 c-26 -3 -28 -6 -30
-55 -1 -29 2 -55 6 -57 4 -3 8 8 9 25 1 42 12 51 12 10 0 -25 4 -32 15 -27 12
4 15 -4 15 -40 0 -37 -3 -45 -17 -43 -44 4 -43 6 -43 -186 l0 -185 -110 0
-110 0 0 -235 0 -235 -50 0 -50 0 0 -230 0 -230 -145 0 -145 0 0 -270 0 -270
-85 0 -85 0 0 -265 c0 -258 -1 -265 -20 -265 -19 0 -20 -7 -20 -227 l0 -228
-70 3 -70 4 0 -331 0 -331 -135 0 -135 0 0 -225 0 -225 -140 0 -140 0 0 -260
0 -260 -61 0 -61 0 4 -145 c3 -145 3 -145 -19 -145 -22 0 -23 3 -23 108 l0
108 -40 -4 c-27 -3 -40 -9 -40 -19 0 -8 -4 -11 -10 -8 -5 3 -10 -1 -10 -10 0
-9 -5 -15 -11 -13 -6 2 -10 7 -10 11 1 4 1 14 1 22 0 8 3 14 8 14 25 -4 32 4
32 41 0 39 -1 40 -35 40 -34 0 -35 -1 -35 -39 0 -32 -3 -39 -17 -36 -10 2 -20
4 -23 4 -4 1 -4 17 -2 37 4 36 4 37 -27 32 l-31 -5 0 129 0 128 -70 0 -70 0 0
135 0 135 -120 0 -120 0 0 120 0 120 -90 0 -90 0 0 240 c0 153 -4 240 -10 240
-6 0 -10 40 -10 100 l0 100 -105 0 -105 0 0 95 0 95 -135 0 -135 0 0 130 0
130 -130 0 -130 0 0 225 0 225 -40 0 -40 0 0 135 0 135 -50 0 -50 0 0 100 0
100 -262 2 -263 3 0 168 0 167 -212 0 -213 0 -2 -167 -3 -168 -222 -3 -223 -2
0 -100 0 -100 -115 0 -115 0 0 -135 0 -135 -55 0 -55 0 0 -225 0 -225 -75 0
-75 0 0 -130 0 -130 -85 0 -85 0 0 -95 0 -95 -135 0 -135 0 0 -195 0 -195 -25
0 c-23 0 -25 -4 -25 -41 l0 -40 -72 2 -73 2 -3 -106 -3 -107 -89 0 -90 0 0
-120 0 -120 -40 0 -40 0 0 -135 0 -135 -165 0 -165 0 -1 -137 c-1 -76 -2 -153
-2 -170 0 -26 -3 -31 -13 -22 -8 6 -21 8 -30 5 -14 -5 -16 0 -12 34 3 39 3 40
-29 40 l-33 0 0 -255 0 -255 -115 0 -115 0 0 -105 0 -105 -45 0 -45 0 0 -130
0 -130 -25 0 -25 0 0 -110 0 -110 -87 -1 c-49 -1 -96 -2 -106 -2 -16 0 -18 -9
-17 -86 1 -47 1 -150 1 -228 l-1 -143 -100 0 -100 0 0 -95 0 -95 -145 0 -145
0 0 -130 0 -130 -50 0 -50 0 0 -240 0 -240 -25 0 -25 0 0 -160 0 -160 -120 0
-120 0 0 -90 0 -90 -125 0 -125 0 0 -135 0 -135 -75 0 -75 0 0 -135 0 -135
-145 0 -145 0 0 135 0 135 -130 0 -130 0 0 135 0 135 -90 0 -90 0 0 90 0 90
-65 0 -65 0 0 160 0 160 -70 0 -70 0 0 95 0 95 -40 0 -40 0 0 145 0 145 -160
0 -160 0 0 130 0 130 -85 0 -85 0 0 95 0 95 -60 0 -60 0 0 140 0 140 -120 0
-120 0 0 90 c0 89 0 90 -25 90 l-25 0 0 110 0 110 -120 0 -120 0 0 130 0 130
-60 0 -60 0 0 105 0 105 -115 0 -115 0 0 110 0 110 -90 0 -90 0 0 145 0 145
-30 0 -30 0 0 128 0 129 -53 -5 -52 -4 -3 71 c-2 45 1 71 7 71 14 0 14 37 1
45 -6 4 -10 70 -10 166 l0 159 -135 0 -135 0 0 105 0 105 -100 0 -100 0 0 135
0 135 -100 0 -100 0 0 100 0 100 -105 0 -105 0 0 225 0 225 -60 0 -60 0 0 225
0 225 -100 0 -100 0 0 235 0 235 -90 0 -90 0 0 170 0 169 -97 3 -98 3 -3 228
-2 227 -60 0 -60 0 0 330 0 330 -40 0 -40 0 0 330 0 330 -165 0 -165 0 0 1420
c0 1345 1 1420 18 1421 15 0 15 1 -2 8 -38 15 12 21 165 21 l149 0 0 245 0
245 40 0 40 0 0 110 0 110 60 0 60 0 0 265 0 265 100 0 100 0 0 115 0 115 90
0 90 0 0 95 0 95 100 0 100 0 0 100 0 100 60 0 60 0 0 175 0 175 105 0 105 0
0 95 0 95 200 0 200 0 0 135 0 135 135 0 135 0 0 100 0 100 85 0 85 0 0 145 0
145 205 0 205 0 0 120 0 120 185 0 c141 0 185 3 185 13 0 9 3 8 9 -2 11 -17
33 -5 30 17 -1 10 -1 52 0 95 l1 77 265 0 265 0 0 125 0 125 425 0 425 0 0
135 0 135 1125 0 1125 0 0 -39 c0 -38 1 -39 45 -45 25 -4 54 -4 65 -1 18 6 20
1 22 -42 l1 -48 4 43 c2 23 9 42 15 42 6 0 9 -32 6 -90 l-3 -90 458 0 457 0 0
-125 0 -125 220 0 220 0 0 -100 0 -100 75 0 75 0 0 -365 0 -365 55 0 55 0 0
-135 0 -135 115 0 115 0 0 -95 0 -95 173 0 172 0 1 -30 c1 -17 -3 -30 -8 -30
-5 0 -7 -64 -6 -142 l3 -142 35 -3 c34 -4 35 -3 37 33 2 43 5 47 27 38 17 -7
23 -54 6 -54 -5 0 -10 -4 -10 -10 0 -6 84 -10 233 -10 127 0 226 4 219 8 -21
14 -3 42 27 42 19 0 22 3 12 9 -8 5 -20 7 -27 4 -14 -5 -28 65 -22 107 3 22 7
24 61 21 l57 -2 0 50 c0 48 -2 51 -25 51 -21 0 -25 5 -25 30 0 28 3 30 36 30
28 0 34 -3 26 -12 -12 -16 18 -58 41 -58 43 0 62 31 35 58 -9 9 25 12 155 12
l167 0 0 95 0 95 50 0 50 0 0 135 0 135 40 0 40 0 0 1285 0 1285 -40 0 -40 0
0 95 0 95 -50 0 -50 0 0 130 0 129 -152 3 -153 3 -3 38 c-2 20 0 37 5 36 4 -1
36 -1 71 0 59 1 62 2 62 26 0 23 -4 25 -44 25 -41 0 -44 2 -50 30 -5 28 -8 30
-27 19 -15 -8 -19 -8 -15 0 5 8 -101 11 -378 11 l-386 0 0 -89 c0 -72 -3 -90
-16 -95 -9 -3 -337 -6 -730 -6 l-714 0 0 95 0 95 -1825 0 -1825 0 0 -95z
m5877 43 c-3 -8 -6 -5 -6 6 -1 11 2 17 5 13 3 -3 4 -12 1 -19z m-10527 -3253
c0 -8 -2 -15 -4 -15 -2 0 -6 7 -10 15 -3 8 -1 15 4 15 6 0 10 -7 10 -15z m-34
-20 c1 -8 -2 -15 -7 -15 -5 0 -9 10 -9 22 0 23 12 17 16 -7z m23411 19 c-3 -3
-12 -4 -19 -1 -8 3 -5 6 6 6 11 1 17 -2 13 -5z m3 -128 c0 -14 -3 -27 -7 -29
-5 -3 -8 8 -8 24 0 16 3 29 8 29 4 0 7 -11 7 -24z m-8023 -251 c0 -8 -4 -12
-9 -9 -4 3 -8 9 -8 15 0 5 4 9 8 9 5 0 9 -7 9 -15z m-5491 -100 c-7 -47 -11
-51 -35 -36 -13 8 -13 12 0 27 8 9 12 18 10 18 -2 1 2 11 9 23 19 30 24 22 16
-32z m-49 -171 c-3 -3 -12 -4 -19 -1 -8 3 -5 6 6 6 11 1 17 -2 13 -5z m6053
-29 c0 -5 -5 -3 -10 5 -5 8 -10 20 -10 25 0 6 5 3 10 -5 5 -8 10 -19 10 -25z
m-6054 -10 c1 -8 -4 -15 -11 -15 -7 0 -12 8 -10 18 2 9 4 19 4 21 2 9 15 -10
17 -24z m16839 -2494 c3 -5 1 -12 -5 -16 -5 -3 -10 1 -10 9 0 18 6 21 15 7z
m55 1 c0 -4 -9 -8 -20 -8 -11 0 -20 4 -20 8 0 4 9 8 20 8 11 0 20 -4 20 -8z
m-27763 -108 c-3 -3 -12 -4 -19 -1 -8 3 -5 6 6 6 11 1 17 -2 13 -5z m27883
-1524 c0 -5 -2 -10 -4 -10 -3 0 -8 5 -11 10 -3 6 -1 10 4 10 6 0 11 -4 11 -10z
m-27 -77 c-7 -2 -19 -2 -25 0 -7 3 -2 5 12 5 14 0 19 -2 13 -5z m-6 -19 c-3
-3 -12 -4 -19 -1 -8 3 -5 6 6 6 11 1 17 -2 13 -5z m-12407 -510 c0 -8 -4 -12
-10 -9 -5 3 -10 10 -10 16 0 5 5 9 10 9 6 0 10 -7 10 -16z m-83 -396 c-3 -8
-6 -5 -6 6 -1 11 2 17 5 13 3 -3 4 -12 1 -19z m3097 -983 c-4 -8 -8 -15 -10
-15 -2 0 -4 7 -4 15 0 8 4 15 10 15 5 0 7 -7 4 -15z m-24 -15 c0 -5 -7 -10
-15 -10 -8 0 -15 5 -15 10 0 6 7 10 15 10 8 0 15 -4 15 -10z m-17932 -246 c2
-15 1 -16 -6 -5 -11 16 -47 7 -37 -9 3 -5 1 -10 -4 -10 -16 0 -13 16 5 35 20
19 38 15 42 -11z m212 -794 c0 -5 -5 -10 -11 -10 -5 0 -7 5 -4 10 3 6 8 10 11
10 2 0 4 -4 4 -10z m-23 -42 c-3 -8 -6 -5 -6 6 -1 11 2 17 5 13 3 -3 4 -12 1
-19z m38 2 c3 -5 1 -10 -4 -10 -6 0 -11 5 -11 10 0 6 2 10 4 10 3 0 8 -4 11
-10z m13739 -916 c16 -6 23 -63 9 -65 -72 -11 -73 -10 -73 24 0 19 3 37 7 40
8 9 36 9 57 1z m-12545 -1626 c-1 -47 -3 -57 -9 -38 -12 36 -12 100 0 100 6 0
10 -27 9 -62z m11578 0 c-2 -13 -4 -5 -4 17 -1 22 1 32 4 23 2 -10 2 -28 0
-40z m-11615 -93 c3 -3 3 -16 1 -29 -4 -18 -10 -22 -29 -18 -34 6 -35 52 -1
52 13 0 26 -2 29 -5z m11610 -1 c14 -13 -6 -44 -27 -44 -14 0 -25 7 -28 19 -6
24 0 31 28 31 12 0 24 -3 27 -6z m-11491 -63 c1 -3 2 -18 3 -33 2 -27 0 -28
-49 -27 -27 0 -44 3 -37 6 6 2 12 13 12 24 0 10 5 19 10 19 6 0 10 6 10 14 0
9 8 12 25 8 14 -2 26 -7 26 -11z m-94 -33 c-3 -7 -5 -2 -5 12 0 14 2 19 5 13
2 -7 2 -19 0 -25z m6261 -1038 c1 -31 -17 -43 -19 -12 -1 15 -2 14 -6 -2 -4
-14 -7 -15 -13 -6 -12 19 0 50 20 50 12 0 17 -9 18 -30z m16772 -460 c0 -13
-6 -20 -17 -19 -11 0 -13 3 -5 6 6 2 12 11 12 19 0 8 2 14 5 14 3 0 5 -9 5
-20z m-6260 -1370 c0 -5 -4 -10 -10 -10 -5 0 -10 5 -10 10 0 6 5 10 10 10 6 0
10 -4 10 -10z m2458 -547 c-10 -2 -28 -2 -40 0 -13 2 -5 4 17 4 22 1 32 -1 23
-4z m-60 -130 c-2 -20 -9 -29 -25 -31 -20 -3 -23 1 -23 27 0 27 4 31 26 31 22
0 25 -4 22 -27z m-13198 -1823 c0 -5 -2 -10 -4 -10 -3 0 -8 5 -11 10 -3 6 -1
10 4 10 6 0 11 -4 11 -10z m12173 -1615 c-3 -9 -8 -14 -10 -11 -3 3 -2 9 2 15
9 16 15 13 8 -4z"/>
<path d="M2808 14323 c7 -3 16 -2 19 1 4 3 -2 6 -13 5 -11 0 -14 -3 -6 -6z"/>
<path d="M23083 28254 c-3 -8 -1 -20 6 -27 8 -8 11 -4 11 16 0 30 -7 35 -17
11z"/>
<path d="M9267 26423 c-12 -12 -8 -158 5 -171 7 -7 28 -11 48 -11 19 1 28 3
18 6 -18 5 -31 30 -22 44 3 5 21 9 40 9 27 0 34 -4 34 -20 0 -11 -6 -20 -12
-20 -9 0 -8 -4 2 -10 8 -5 32 -10 53 -10 35 0 37 2 37 30 0 28 -2 30 -40 30
-33 0 -40 3 -40 20 0 11 -6 20 -14 20 -8 0 -17 8 -19 18 -4 16 -5 16 -6 0 -3
-47 -31 -2 -31 50 0 16 -6 22 -23 22 -13 0 -27 -3 -30 -7z"/>
<path d="M20045 26290 c-3 -5 -1 -18 4 -27 9 -16 10 -14 11 10 0 28 -5 34 -15
17z"/>
<path d="M26733 26215 c0 -8 4 -12 9 -9 5 3 6 10 3 15 -9 13 -12 11 -12 -6z"/>
<path d="M10850 25640 c0 -5 5 -10 10 -10 6 0 10 5 10 10 0 6 -4 10 -10 10 -5
0 -10 -4 -10 -10z"/>
<path d="M10888 25643 c6 -2 18 -2 25 0 6 3 1 5 -13 5 -14 0 -19 -2 -12 -5z"/>
<path d="M10911 25614 c0 -11 3 -14 6 -6 3 7 2 16 -1 19 -3 4 -6 -2 -5 -13z"/>
<path d="M16378 25083 c7 -3 16 -2 19 1 4 3 -2 6 -13 5 -11 0 -14 -3 -6 -6z"/>
<path d="M16378 25063 c7 -3 16 -2 19 1 4 3 -2 6 -13 5 -11 0 -14 -3 -6 -6z"/>
<path d="M12385 24490 c-16 -7 -17 -9 -3 -9 9 -1 20 4 23 9 7 11 7 11 -20 0z"/>
<path d="M12270 24366 c0 -37 18 -45 85 -38 56 7 60 9 63 35 l3 27 -75 0 c-73
0 -76 -1 -76 -24z"/>
<path d="M17238 24373 c7 -3 16 -2 19 1 4 3 -2 6 -13 5 -11 0 -14 -3 -6 -6z"/>
<path d="M63975 23393 c-39 -5 -230 -50 -275 -65 -19 -6 -42 -19 -50 -28 -9
-10 -40 -32 -70 -50 -30 -18 -71 -47 -90 -65 -19 -19 -51 -48 -70 -67 -48 -45
-120 -133 -120 -147 0 -6 -15 -32 -34 -58 -99 -140 -191 -424 -231 -723 -30
-216 -35 -577 -35 -2545 l0 -1970 -43 46 c-87 95 -187 208 -187 212 0 2 -24
29 -52 59 -140 145 -189 196 -224 230 -22 20 -46 44 -55 55 -26 29 -139 128
-194 169 -27 21 -51 42 -53 46 -2 4 -27 24 -55 45 -28 21 -65 52 -82 69 -17
17 -52 41 -78 54 -25 13 -65 40 -87 61 -22 21 -66 52 -98 70 -31 18 -59 36
-62 40 -10 13 -75 49 -91 49 -9 0 -26 9 -39 20 -13 11 -27 20 -31 20 -4 0 -14
6 -21 13 -14 14 -145 75 -210 98 -21 7 -38 17 -38 21 0 4 -7 8 -15 8 -8 0 -15
4 -15 9 0 10 -85 37 -205 66 -38 9 -72 20 -75 24 -6 8 -225 61 -252 61 -10 0
-18 4 -18 8 0 8 -194 42 -237 42 -13 0 -23 4 -23 9 0 4 -64 14 -142 22 -283
28 -1098 12 -1098 -21 0 -3 -62 -15 -137 -25 -76 -10 -140 -21 -143 -25 -3 -4
-57 -20 -120 -35 -63 -15 -117 -31 -120 -35 -3 -4 -41 -15 -85 -24 -109 -23
-207 -56 -225 -76 -8 -9 -68 -35 -132 -59 -64 -23 -127 -51 -139 -62 -12 -10
-25 -19 -29 -19 -4 0 -17 -9 -30 -20 -13 -11 -29 -20 -37 -20 -16 0 -95 -39
-103 -50 -3 -4 -33 -21 -67 -39 -34 -17 -77 -46 -95 -64 -42 -43 -92 -77 -111
-77 -9 0 -34 -18 -57 -40 -23 -22 -61 -53 -84 -69 -22 -16 -59 -46 -82 -67
-22 -22 -75 -70 -118 -109 -44 -38 -86 -78 -95 -88 -9 -10 -37 -39 -62 -65
-26 -26 -81 -88 -123 -139 -42 -51 -88 -101 -101 -112 -14 -10 -25 -22 -25
-26 0 -4 -18 -29 -40 -55 -22 -26 -40 -51 -40 -54 0 -8 -62 -96 -117 -167 -23
-30 -43 -59 -43 -63 0 -4 -20 -35 -44 -69 -23 -34 -50 -75 -58 -92 -17 -35
-50 -93 -102 -185 -20 -36 -50 -94 -67 -130 -17 -36 -41 -87 -54 -115 -46 -98
-85 -187 -85 -197 0 -6 -13 -38 -29 -72 -28 -58 -70 -171 -92 -246 -6 -19 -30
-94 -54 -166 -40 -121 -61 -200 -116 -434 -11 -47 -26 -110 -34 -140 -13 -49
-59 -324 -100 -595 -8 -55 -27 -230 -42 -390 -25 -274 -26 -323 -27 -865 0
-550 1 -588 27 -860 25 -260 38 -361 98 -740 19 -122 66 -344 93 -445 8 -27
22 -86 31 -130 16 -77 32 -133 60 -220 8 -22 30 -94 50 -160 67 -218 142 -422
189 -513 9 -17 16 -38 16 -47 0 -17 157 -345 194 -403 12 -20 28 -51 34 -69 6
-18 33 -67 61 -111 28 -43 51 -82 51 -87 0 -4 16 -29 35 -55 19 -26 35 -51 35
-54 0 -4 17 -30 38 -59 38 -55 56 -83 79 -129 8 -15 34 -48 60 -75 25 -26 57
-66 71 -88 14 -22 39 -56 56 -76 17 -19 49 -58 71 -85 22 -27 66 -76 97 -108
32 -33 58 -61 58 -63 0 -13 270 -268 295 -279 39 -17 65 -38 65 -52 0 -6 24
-27 53 -48 28 -20 62 -47 74 -58 57 -55 74 -67 119 -86 27 -12 51 -25 54 -29
3 -4 33 -24 68 -44 63 -37 79 -48 110 -79 21 -20 141 -78 163 -78 9 0 26 -9
39 -20 13 -11 29 -20 36 -20 7 0 14 -4 16 -10 2 -5 48 -26 103 -47 55 -21 102
-40 105 -44 3 -3 52 -22 110 -40 58 -19 108 -38 111 -42 3 -4 31 -11 62 -14
32 -3 57 -9 57 -13 0 -9 230 -54 400 -77 181 -25 766 -25 965 0 162 20 418 67
425 77 3 4 29 10 59 13 30 4 57 10 60 15 3 5 55 23 116 41 60 18 112 36 115
40 3 5 52 25 110 47 58 21 110 42 115 46 6 5 21 17 34 28 13 11 32 20 42 20
26 0 170 71 194 95 11 12 47 36 80 54 33 19 68 43 78 53 10 10 31 21 47 25 26
5 46 19 115 81 11 10 48 38 83 62 34 23 62 48 62 54 0 6 24 25 53 43 28 17 93
71 143 120 50 48 111 104 137 123 25 19 47 40 47 46 0 6 26 36 58 66 73 70
234 245 246 266 5 10 37 45 72 80 35 34 64 67 64 72 0 5 39 57 88 115 l87 106
2 -68 c10 -276 25 -531 37 -603 21 -123 56 -282 69 -305 5 -11 14 -33 18 -50
11 -43 80 -198 96 -213 7 -7 13 -19 13 -25 0 -7 13 -28 29 -47 15 -19 31 -45
35 -57 4 -12 28 -44 54 -72 26 -27 56 -60 67 -73 29 -32 114 -104 161 -136 22
-14 45 -32 52 -39 7 -7 22 -13 32 -13 10 0 20 -4 22 -10 5 -16 166 -68 262
-85 114 -19 328 -19 442 0 98 17 257 68 262 85 2 5 12 10 22 10 10 0 25 6 32
13 7 6 33 25 58 41 50 32 86 63 138 116 18 19 56 58 83 85 27 28 49 54 49 58
0 4 18 35 40 67 22 32 40 62 40 66 0 4 6 15 14 23 16 18 62 134 77 196 6 21
14 44 19 50 9 11 47 186 71 330 21 119 21 12733 1 12875 -15 105 -54 288 -77
365 -23 76 -91 241 -105 255 -14 14 -49 69 -64 100 -24 53 -193 222 -267 269
-35 22 -69 45 -76 51 -7 5 -17 10 -23 10 -5 0 -10 4 -10 9 0 16 -152 57 -300
81 -61 9 -329 12 -395 3z m-3275 -6112 c0 -4 36 -12 80 -15 44 -4 80 -12 80
-17 0 -5 19 -9 43 -9 64 0 327 -74 327 -92 0 -4 6 -8 14 -8 8 0 21 -6 28 -14
8 -7 44 -27 81 -43 37 -16 80 -39 94 -51 15 -12 34 -22 43 -22 20 0 77 -35
110 -68 15 -15 57 -47 93 -72 36 -24 71 -54 78 -67 6 -12 24 -26 38 -31 14 -6
60 -47 101 -92 41 -45 101 -108 133 -140 31 -32 57 -63 57 -69 0 -6 15 -28 33
-48 17 -21 37 -46 42 -55 6 -9 37 -56 71 -105 34 -49 70 -109 81 -134 12 -26
25 -49 31 -53 6 -3 23 -32 37 -64 30 -62 65 -135 82 -167 20 -37 83 -184 83
-193 0 -5 13 -40 28 -78 79 -191 188 -645 221 -919 12 -93 25 -201 31 -240 17
-121 33 -631 27 -845 -14 -464 -69 -886 -162 -1247 -40 -153 -126 -415 -161
-488 -13 -27 -37 -84 -55 -125 -17 -41 -37 -82 -44 -90 -7 -8 -16 -26 -20 -40
-4 -14 -23 -49 -41 -78 -19 -29 -34 -57 -34 -62 0 -6 -25 -47 -55 -91 -30 -44
-55 -82 -55 -84 0 -10 -60 -92 -80 -110 -12 -11 -25 -27 -29 -37 -14 -38 -200
-232 -277 -290 -24 -18 -46 -40 -49 -48 -6 -16 -128 -100 -145 -100 -5 0 -18
-8 -29 -17 -38 -36 -67 -55 -119 -78 -29 -13 -59 -30 -67 -38 -7 -8 -51 -29
-97 -47 -46 -19 -85 -36 -88 -40 -20 -24 -312 -91 -472 -109 -124 -14 -408
-14 -518 -1 -160 20 -432 86 -450 109 -3 3 -49 24 -102 45 -54 21 -99 42 -100
46 -2 4 -28 20 -58 35 -30 15 -62 33 -70 41 -8 7 -25 22 -37 34 -13 11 -28 20
-34 20 -19 0 -139 84 -144 102 -3 9 -18 24 -33 34 -36 23 -96 78 -146 133 -23
25 -65 70 -93 101 -29 31 -53 61 -53 66 0 5 -19 27 -41 49 -23 22 -45 49 -50
60 -20 41 -86 142 -110 169 -11 11 -19 25 -19 31 0 6 -15 36 -33 66 -18 30
-39 70 -46 89 -8 19 -20 42 -26 50 -7 8 -27 49 -44 90 -18 41 -39 91 -48 110
-14 31 -118 337 -158 465 -15 47 -25 95 -80 365 -26 129 -25 124 -62 425 -25
210 -26 243 -27 700 0 436 2 497 23 665 33 276 51 412 56 420 2 4 11 42 20 86
37 194 50 249 96 404 69 235 130 409 188 535 63 136 75 160 103 201 15 23 28
48 28 56 0 8 14 34 30 56 17 23 30 45 30 49 0 5 18 32 40 61 22 29 40 55 40
57 0 3 18 28 40 56 22 28 40 57 40 64 0 8 15 26 34 40 19 15 52 50 74 78 51
67 141 157 158 157 7 0 20 13 30 28 9 16 46 49 82 73 35 24 81 60 102 80 20
20 58 44 84 54 25 10 46 21 46 25 0 4 38 25 85 46 47 21 85 41 85 45 0 4 12
10 27 14 15 3 31 11 34 17 11 18 231 80 302 85 37 3 67 9 67 14 0 4 36 11 80
15 44 3 80 11 80 15 0 5 88 9 195 9 107 0 195 -4 195 -9z"/>
<path d="M78160 23389 c-282 -20 -700 -68 -700 -80 0 -5 -13 -9 -30 -9 -16 0
-30 -4 -30 -10 0 -5 -8 -10 -18 -10 -31 0 -386 -80 -391 -88 -3 -4 -53 -21
-111 -36 -58 -15 -107 -32 -111 -37 -3 -5 -32 -14 -64 -19 -32 -5 -61 -13 -64
-18 -3 -5 -70 -30 -148 -57 -79 -26 -143 -53 -143 -59 0 -11 -212 -96 -237
-96 -7 0 -13 -3 -13 -8 0 -4 -27 -18 -60 -31 -33 -13 -60 -27 -60 -32 0 -4
-21 -15 -46 -25 -25 -10 -52 -23 -58 -30 -7 -7 -55 -33 -107 -59 -52 -26 -96
-51 -99 -54 -3 -4 -45 -29 -95 -55 -49 -27 -92 -53 -93 -57 -2 -5 -17 -16 -33
-25 -17 -8 -38 -22 -47 -30 -9 -9 -64 -45 -121 -80 -58 -36 -114 -76 -125 -88
-12 -13 -49 -42 -83 -66 -35 -24 -63 -47 -63 -51 0 -5 -7 -9 -15 -9 -7 0 -18
-6 -22 -13 -4 -6 -26 -25 -48 -42 -51 -37 -97 -78 -157 -137 -26 -27 -50 -48
-54 -48 -11 0 -98 -72 -108 -90 -5 -8 -43 -47 -85 -87 -42 -39 -85 -82 -96
-93 -103 -112 -135 -149 -135 -158 0 -6 -23 -29 -52 -52 -28 -22 -66 -62 -84
-88 -17 -26 -59 -77 -93 -114 -33 -36 -61 -69 -61 -73 0 -4 -20 -31 -45 -59
-25 -29 -45 -57 -45 -61 0 -4 -17 -29 -37 -54 -54 -64 -78 -99 -112 -156 -17
-28 -39 -59 -49 -70 -10 -11 -27 -36 -38 -55 -10 -19 -31 -51 -46 -71 -16 -20
-28 -40 -28 -44 0 -3 -13 -26 -30 -50 -16 -24 -30 -46 -30 -50 0 -4 -14 -26
-31 -51 -16 -24 -37 -61 -46 -81 -8 -21 -28 -56 -43 -79 -16 -22 -42 -70 -59
-105 -17 -35 -49 -98 -71 -139 -23 -41 -55 -106 -71 -145 -17 -38 -39 -86 -50
-107 -10 -20 -25 -53 -33 -75 -7 -21 -27 -67 -44 -103 -40 -84 -82 -187 -91
-226 -5 -16 -15 -41 -23 -55 -9 -13 -28 -64 -43 -114 -16 -49 -31 -94 -35
-100 -8 -11 -39 -106 -90 -275 -17 -58 -38 -125 -46 -150 -8 -25 -39 -141 -69
-257 -160 -632 -247 -1226 -291 -1988 -22 -383 -14 -1184 15 -1560 26 -344 67
-684 111 -935 5 -30 17 -100 26 -155 30 -193 112 -551 199 -875 35 -131 183
-586 206 -636 10 -22 19 -44 19 -48 0 -13 152 -390 166 -411 7 -11 20 -38 27
-60 8 -22 38 -89 67 -150 29 -60 66 -139 82 -175 16 -35 33 -67 37 -70 4 -3
31 -53 60 -112 29 -58 59 -112 67 -118 8 -7 14 -19 14 -28 0 -8 23 -50 50 -93
28 -43 50 -82 50 -87 0 -5 9 -17 20 -27 11 -10 20 -23 20 -28 0 -6 11 -24 24
-42 13 -17 34 -51 45 -76 12 -25 33 -58 46 -75 14 -16 40 -51 58 -78 80 -123
170 -248 190 -265 10 -7 17 -20 17 -28 0 -8 26 -42 59 -76 32 -34 71 -80 87
-102 53 -74 108 -139 183 -215 41 -41 92 -97 114 -125 21 -27 51 -57 66 -66
27 -16 81 -75 81 -87 0 -4 26 -27 58 -52 31 -24 65 -55 75 -67 10 -13 23 -23
28 -23 5 0 37 -27 70 -60 33 -32 80 -71 104 -87 24 -15 46 -35 48 -43 2 -9 29
-29 60 -44 30 -16 69 -40 85 -55 58 -50 83 -70 115 -93 18 -12 34 -25 37 -28
7 -8 93 -53 148 -75 23 -10 42 -24 42 -31 0 -7 39 -33 88 -59 48 -26 89 -51
92 -55 3 -4 15 -10 27 -14 13 -4 30 -14 38 -23 9 -8 48 -26 88 -40 39 -13 74
-28 77 -33 7 -11 168 -80 188 -80 6 0 12 -4 12 -9 0 -5 10 -13 23 -17 12 -4
24 -10 27 -13 8 -11 211 -79 258 -86 23 -4 42 -11 42 -15 0 -5 15 -12 33 -15
17 -4 34 -11 37 -15 3 -4 69 -24 148 -45 78 -21 142 -41 142 -45 0 -4 78 -23
173 -41 94 -18 175 -37 178 -42 3 -4 42 -11 85 -14 43 -3 81 -9 84 -13 8 -10
410 -59 630 -76 265 -21 971 -30 1209 -15 301 19 748 72 761 91 3 4 38 10 79
13 41 3 77 10 80 15 3 5 24 12 46 16 76 13 260 59 265 65 3 4 25 13 50 19 126
35 226 67 230 73 3 4 18 11 33 14 15 4 27 11 27 16 0 4 17 11 38 14 47 8 232
76 232 86 0 4 11 10 25 13 14 4 25 11 25 16 0 6 5 10 10 10 16 0 173 73 188
87 6 6 36 19 65 27 29 9 64 25 77 36 13 11 26 20 30 20 4 0 19 10 34 23 15 13
63 41 106 62 44 22 80 45 80 52 0 7 38 31 85 52 47 22 85 44 85 49 0 4 18 18
40 31 22 12 40 26 40 29 0 4 12 15 28 24 15 9 41 28 57 42 17 14 48 35 70 46
49 24 75 44 75 57 0 6 26 28 58 51 31 22 80 62 109 89 29 26 78 71 109 98 32
28 65 59 75 70 10 11 38 39 61 62 93 92 229 244 318 354 144 178 186 232 200
258 9 15 32 47 51 72 44 54 159 223 179 264 8 17 20 35 26 40 22 21 64 84 64
97 0 7 21 45 46 83 26 39 56 90 67 115 11 25 31 62 44 82 12 21 23 44 23 51 0
8 9 26 21 41 11 14 32 54 46 88 14 35 40 95 57 133 18 39 45 104 61 145 15 41
31 84 36 95 10 23 82 236 105 310 17 58 102 381 114 440 54 249 89 697 70 890
-19 190 -79 401 -143 498 -9 15 -17 29 -17 32 0 3 -18 33 -40 66 -22 33 -40
64 -40 69 0 5 -18 23 -40 40 -22 17 -40 38 -40 45 0 8 -21 33 -47 57 -25 24
-60 56 -76 71 -16 16 -55 45 -86 65 -31 19 -58 39 -61 43 -10 14 -129 66 -195
85 -36 10 -65 24 -65 30 0 23 -131 39 -310 39 -180 0 -320 -17 -320 -39 0 -6
-29 -20 -65 -30 -68 -19 -186 -71 -195 -86 -3 -4 -29 -26 -58 -48 -59 -44
-134 -128 -159 -176 -8 -17 -23 -40 -33 -51 -17 -18 -42 -61 -106 -185 -13
-25 -28 -52 -34 -60 -12 -20 -80 -176 -80 -184 0 -4 -11 -31 -24 -61 -14 -29
-59 -154 -100 -276 -41 -123 -80 -240 -87 -259 -60 -174 -240 -583 -289 -655
-11 -16 -20 -36 -20 -43 0 -7 -15 -36 -33 -65 -50 -78 -97 -158 -97 -164 0 -3
-15 -24 -34 -47 -18 -23 -36 -50 -39 -61 -4 -11 -24 -38 -44 -61 -21 -23 -45
-54 -53 -70 -8 -16 -30 -47 -50 -69 -19 -23 -53 -63 -75 -90 -22 -28 -67 -78
-100 -111 -33 -34 -70 -76 -83 -93 -13 -17 -28 -31 -34 -31 -6 0 -30 -18 -52
-39 -23 -21 -69 -66 -104 -100 -35 -33 -88 -72 -118 -86 -30 -14 -54 -31 -54
-38 0 -7 -37 -35 -82 -62 -46 -27 -85 -52 -88 -55 -3 -4 -21 -15 -40 -25 -19
-10 -39 -24 -43 -31 -4 -7 -31 -20 -59 -29 -29 -8 -54 -19 -57 -23 -7 -10
-165 -78 -203 -87 -16 -4 -28 -11 -28 -16 0 -5 -7 -9 -15 -9 -8 0 -15 -4 -15
-8 0 -16 -274 -92 -329 -92 -17 0 -31 -4 -31 -8 0 -5 -39 -15 -87 -22 -49 -7
-91 -17 -94 -21 -3 -5 -88 -18 -190 -29 -206 -22 -610 -27 -790 -10 -153 14
-283 32 -289 40 -3 4 -39 12 -80 19 -41 6 -77 16 -80 20 -3 4 -30 11 -60 14
-67 7 -304 74 -308 87 -2 6 -10 10 -17 10 -7 0 -15 3 -17 8 -1 4 -54 27 -115
51 -62 24 -113 48 -113 52 0 4 -15 11 -32 14 -35 8 -90 33 -98 45 -3 4 -21 15
-40 25 -19 10 -37 21 -40 25 -3 4 -38 26 -79 50 -41 24 -76 52 -78 61 -3 10
-19 23 -36 30 -32 13 -87 49 -119 79 -9 8 -40 35 -69 60 -28 25 -63 57 -77 73
-14 15 -30 27 -36 27 -11 0 -147 142 -191 199 -11 14 -36 43 -55 63 -58 61
-100 115 -100 127 0 7 -20 34 -45 60 -25 26 -45 51 -45 55 0 4 -29 51 -65 106
-36 54 -77 120 -92 147 -64 113 -106 192 -133 253 -17 36 -37 79 -46 95 -9 17
-22 41 -29 55 -7 14 -30 68 -50 120 -20 52 -48 122 -62 155 -15 33 -29 73 -33
90 -5 16 -22 68 -39 115 -43 117 -128 420 -151 537 -5 27 -16 80 -25 118 -15
66 -35 169 -69 365 -41 239 -88 702 -106 1050 -12 242 -12 863 0 1150 12 275
44 667 70 840 11 74 27 187 36 250 8 63 24 158 34 210 65 316 92 437 120 535
17 61 40 142 50 180 30 113 115 363 133 391 4 7 21 52 38 100 39 110 79 199
252 553 6 13 22 33 34 45 13 11 23 27 23 34 0 7 15 34 32 60 18 26 44 67 57
92 13 25 43 71 67 102 23 31 50 69 58 85 8 15 40 55 70 88 31 33 56 65 56 71
0 5 14 23 30 39 17 16 30 33 30 39 0 5 46 55 103 111 56 55 115 117 130 138
15 20 60 61 100 90 40 30 98 78 129 108 90 87 118 109 196 151 40 22 78 46 85
52 7 7 39 27 72 46 33 19 66 40 73 47 7 7 24 16 38 19 13 3 24 10 24 15 0 4
19 13 43 20 77 21 202 72 217 90 9 10 81 35 170 59 85 24 157 46 160 51 7 10
163 36 270 44 46 3 87 10 91 16 22 37 925 35 949 -2 3 -4 55 -12 115 -18 117
-11 215 -30 215 -42 0 -4 17 -10 38 -13 54 -9 276 -79 280 -88 2 -5 10 -8 18
-8 8 0 14 -4 14 -9 0 -9 135 -65 181 -75 14 -3 36 -15 49 -26 13 -11 27 -20
31 -20 4 0 14 -6 21 -13 7 -7 41 -28 76 -47 34 -18 62 -36 62 -40 0 -3 35 -28
78 -55 42 -27 82 -55 87 -62 6 -7 26 -24 45 -38 38 -27 216 -191 262 -240 115
-124 234 -258 237 -268 2 -7 21 -32 43 -56 21 -24 38 -47 38 -51 0 -4 18 -26
40 -50 22 -24 40 -49 40 -56 0 -7 18 -35 40 -63 22 -28 40 -54 40 -59 0 -5 9
-17 20 -27 12 -11 28 -35 37 -54 9 -20 31 -57 50 -82 18 -26 33 -53 33 -60 0
-7 9 -22 19 -33 10 -12 43 -66 71 -121 29 -55 61 -111 71 -124 11 -13 19 -29
19 -35 0 -6 35 -81 79 -166 43 -86 82 -167 86 -180 4 -14 20 -44 35 -67 16
-22 31 -52 35 -65 4 -12 14 -33 22 -46 13 -21 22 -38 89 -159 14 -26 35 -61
47 -77 11 -16 31 -51 45 -78 13 -26 33 -53 43 -59 10 -5 19 -14 19 -19 0 -24
129 -192 158 -205 12 -5 22 -15 22 -21 0 -6 26 -31 58 -54 31 -24 62 -48 67
-54 6 -6 35 -22 65 -36 30 -14 57 -28 60 -31 13 -16 54 -29 165 -52 148 -32
365 -44 480 -28 84 12 275 68 275 80 0 4 23 18 50 31 28 13 50 26 50 30 0 3
30 25 66 49 37 24 69 52 71 62 3 10 14 21 24 24 21 7 119 114 119 130 0 6 14
24 30 40 17 16 30 33 30 37 0 5 9 19 21 31 23 25 118 217 142 288 27 79 56
205 68 296 21 156 2 487 -41 713 -57 302 -186 670 -342 975 -78 154 -151 290
-157 295 -14 11 -51 69 -51 80 0 6 -13 31 -30 55 -16 24 -30 48 -30 53 0 5 -9
17 -20 27 -11 10 -32 39 -47 64 -14 25 -41 64 -60 87 -18 23 -33 48 -33 57 0
8 -10 24 -22 34 -25 20 -98 108 -98 117 0 10 -92 119 -117 139 -12 10 -23 23
-23 29 0 9 -100 126 -147 171 -80 77 -173 169 -206 204 -23 23 -53 47 -68 53
-14 6 -32 22 -39 35 -7 13 -31 37 -54 53 -22 16 -59 46 -81 67 -83 76 -94 85
-104 85 -6 0 -11 3 -11 8 0 4 -34 29 -75 57 -42 27 -77 57 -80 65 -3 8 -60 48
-127 89 -67 41 -130 82 -140 90 -10 9 -26 23 -37 32 -10 9 -59 38 -107 65 -49
26 -95 54 -103 62 -7 7 -50 31 -94 53 -44 23 -86 46 -93 53 -6 7 -33 20 -58
30 -25 10 -46 21 -46 25 0 4 -22 18 -50 31 -27 13 -50 27 -50 32 0 4 -8 8 -17
8 -30 0 -233 82 -233 94 0 12 -72 42 -200 82 -47 14 -87 30 -91 35 -3 5 -29
13 -59 19 -30 6 -57 14 -60 19 -3 6 -55 22 -115 37 -61 15 -112 30 -115 34 -7
9 -155 45 -290 71 -63 12 -116 26 -118 31 -2 4 -15 8 -28 8 -13 0 -24 4 -24 9
0 9 -34 13 -345 46 -342 36 -518 45 -863 44 -191 -1 -399 -5 -462 -10z"/>
<path d="M87270 23385 c-143 -24 -268 -61 -290 -85 -8 -9 -38 -29 -67 -44 -51
-28 -113 -76 -163 -127 -14 -14 -33 -28 -42 -32 -10 -3 -18 -12 -18 -20 0 -7
-20 -33 -45 -57 -25 -24 -45 -51 -45 -59 0 -7 -16 -34 -36 -58 -39 -47 -105
-185 -147 -303 -68 -193 -103 -412 -117 -720 -13 -286 -13 -11862 0 -12136 5
-111 16 -250 25 -310 19 -134 71 -346 96 -396 11 -21 19 -44 19 -52 0 -17 71
-168 102 -216 13 -19 37 -58 53 -85 17 -28 50 -71 75 -96 25 -26 52 -55 61
-65 31 -38 125 -116 169 -142 25 -15 51 -32 58 -39 7 -7 22 -13 32 -13 10 0
20 -5 22 -10 5 -17 164 -68 262 -85 115 -20 346 -20 460 0 101 18 276 72 276
85 0 6 9 10 19 10 11 0 26 6 33 13 7 6 30 21 51 32 22 11 49 29 61 40 12 11
44 38 72 60 27 21 53 46 58 54 5 8 31 35 58 59 26 25 48 49 48 53 0 8 58 97
107 167 16 22 55 109 75 167 6 17 17 45 24 63 23 54 70 258 90 387 18 116 19
322 19 6385 0 6032 -1 6269 -18 6385 -43 280 -128 533 -223 671 -22 31 -47 70
-56 86 -18 33 -139 161 -209 221 -24 21 -73 55 -109 75 -36 20 -72 43 -80 52
-23 26 -177 68 -326 90 -94 13 -343 11 -434 -5z"/>
<path d="M121075 23393 c-39 -5 -230 -50 -275 -65 -19 -6 -42 -19 -50 -28 -9
-10 -40 -32 -70 -50 -30 -18 -71 -47 -90 -65 -19 -19 -51 -48 -70 -67 -48 -45
-120 -133 -120 -147 0 -6 -15 -32 -34 -58 -99 -140 -191 -424 -231 -723 -30
-216 -35 -577 -35 -2545 l0 -1970 -43 46 c-87 95 -187 208 -187 212 0 2 -24
29 -52 59 -140 145 -189 196 -224 230 -22 20 -46 44 -55 55 -26 29 -139 128
-194 169 -27 21 -51 42 -53 46 -2 4 -27 24 -55 45 -28 21 -65 52 -82 69 -17
17 -52 41 -78 54 -25 13 -65 40 -87 61 -22 21 -66 52 -98 70 -31 18 -59 36
-62 40 -10 13 -75 49 -91 49 -9 0 -26 9 -39 20 -13 11 -27 20 -31 20 -4 0 -14
6 -21 13 -14 14 -145 75 -210 98 -21 7 -38 17 -38 21 0 4 -7 8 -15 8 -8 0 -15
4 -15 9 0 10 -85 37 -205 66 -38 9 -72 20 -75 24 -6 8 -225 61 -252 61 -10 0
-18 4 -18 8 0 8 -194 42 -237 42 -13 0 -23 4 -23 9 0 4 -64 14 -142 22 -283
28 -1098 12 -1098 -21 0 -3 -62 -15 -137 -25 -76 -10 -140 -21 -143 -25 -3 -4
-57 -20 -120 -35 -63 -15 -117 -31 -120 -35 -3 -4 -41 -15 -85 -24 -109 -23
-207 -56 -225 -76 -8 -9 -68 -35 -132 -59 -64 -23 -127 -51 -139 -62 -12 -10
-25 -19 -29 -19 -4 0 -17 -9 -30 -20 -13 -11 -29 -20 -37 -20 -16 0 -95 -39
-103 -50 -3 -4 -33 -21 -67 -39 -34 -17 -77 -46 -95 -64 -42 -43 -92 -77 -111
-77 -9 0 -34 -18 -57 -40 -23 -22 -61 -53 -84 -69 -22 -16 -59 -46 -82 -67
-22 -22 -75 -70 -118 -109 -44 -38 -86 -78 -95 -88 -9 -10 -37 -39 -62 -65
-26 -26 -81 -88 -123 -139 -42 -51 -88 -101 -101 -112 -14 -10 -25 -22 -25
-26 0 -4 -18 -29 -40 -55 -22 -26 -40 -51 -40 -54 0 -8 -62 -96 -117 -167 -23
-30 -43 -59 -43 -63 0 -4 -20 -35 -44 -69 -23 -34 -50 -75 -58 -92 -17 -35
-50 -93 -102 -185 -20 -36 -50 -94 -67 -130 -17 -36 -41 -87 -54 -115 -46 -98
-85 -187 -85 -197 0 -6 -13 -38 -29 -72 -28 -58 -70 -171 -92 -246 -6 -19 -30
-94 -54 -166 -40 -121 -61 -200 -116 -434 -11 -47 -26 -110 -34 -140 -13 -49
-59 -324 -100 -595 -8 -55 -27 -230 -42 -390 -25 -274 -26 -323 -27 -865 0
-550 1 -588 27 -860 25 -260 38 -361 98 -740 19 -122 66 -344 93 -445 8 -27
22 -86 31 -130 16 -77 32 -133 60 -220 8 -22 30 -94 50 -160 67 -218 142 -422
189 -513 9 -17 16 -38 16 -47 0 -17 157 -345 194 -403 12 -20 28 -51 34 -69 6
-18 33 -67 61 -111 28 -43 51 -82 51 -87 0 -4 16 -29 35 -55 19 -26 35 -51 35
-54 0 -4 17 -30 38 -59 38 -55 56 -83 79 -129 8 -15 34 -48 60 -75 25 -26 57
-66 71 -88 14 -22 39 -56 56 -76 17 -19 49 -58 71 -85 22 -27 66 -76 97 -108
32 -33 58 -61 58 -63 0 -13 270 -268 295 -279 39 -17 65 -38 65 -52 0 -6 24
-27 53 -48 28 -20 62 -47 74 -58 57 -55 74 -67 119 -86 27 -12 51 -25 54 -29
3 -4 33 -24 68 -44 63 -37 79 -48 110 -79 21 -20 141 -78 163 -78 9 0 26 -9
39 -20 13 -11 29 -20 36 -20 7 0 14 -4 16 -10 2 -5 48 -26 103 -47 55 -21 102
-40 105 -44 3 -3 52 -22 110 -40 58 -19 108 -38 111 -42 3 -4 31 -11 62 -14
32 -3 57 -9 57 -13 0 -9 230 -54 400 -77 181 -25 766 -25 965 0 162 20 418 67
425 77 3 4 29 10 59 13 30 4 57 10 60 15 3 5 55 23 116 41 60 18 112 36 115
40 3 5 52 25 110 47 58 21 110 42 115 46 6 5 21 17 34 28 13 11 32 20 42 20
26 0 170 71 194 95 11 12 47 36 80 54 33 19 68 43 78 53 10 10 31 21 47 25 26
5 46 19 115 81 11 10 48 38 83 62 34 23 62 48 62 54 0 6 24 25 53 43 28 17 93
71 143 120 50 48 111 104 137 123 25 19 47 40 47 46 0 6 26 36 58 66 73 70
234 245 246 266 5 10 37 45 72 80 35 34 64 67 64 72 0 5 39 57 88 115 l87 106
2 -68 c10 -276 25 -531 37 -603 21 -123 56 -282 69 -305 5 -11 14 -33 18 -50
11 -43 80 -198 96 -213 7 -7 13 -19 13 -25 0 -7 13 -28 29 -47 15 -19 31 -45
35 -57 4 -12 28 -44 54 -72 26 -27 56 -60 67 -73 29 -32 114 -104 161 -136 22
-14 45 -32 52 -39 7 -7 22 -13 32 -13 10 0 20 -4 22 -10 5 -16 166 -68 262
-85 114 -19 328 -19 442 0 98 17 257 68 262 85 2 5 12 10 22 10 10 0 25 6 32
13 7 6 33 25 58 41 50 32 86 63 138 116 18 19 56 58 83 85 27 28 49 54 49 58
0 4 18 35 40 67 22 32 40 62 40 66 0 4 6 15 14 23 16 18 62 134 77 196 6 21
14 44 19 50 9 11 47 186 71 330 21 119 21 12733 1 12875 -15 105 -54 288 -77
365 -23 76 -91 241 -105 255 -14 14 -49 69 -64 100 -24 53 -193 222 -267 269
-35 22 -69 45 -76 51 -7 5 -17 10 -23 10 -5 0 -10 4 -10 9 0 16 -152 57 -300
81 -61 9 -329 12 -395 3z m-3275 -6112 c0 -4 36 -12 80 -15 44 -4 80 -12 80
-17 0 -5 19 -9 43 -9 64 0 327 -74 327 -92 0 -4 6 -8 14 -8 8 0 21 -6 28 -14
8 -7 44 -27 81 -43 37 -16 80 -39 94 -51 15 -12 34 -22 43 -22 20 0 77 -35
110 -68 15 -15 57 -47 93 -72 36 -24 71 -54 78 -67 6 -12 24 -26 38 -31 14 -6
60 -47 101 -92 41 -45 101 -108 133 -140 31 -32 57 -63 57 -69 0 -6 15 -28 33
-48 17 -21 37 -46 42 -55 6 -9 37 -56 71 -105 34 -49 70 -109 81 -134 12 -26
25 -49 31 -53 6 -3 23 -32 37 -64 30 -62 65 -135 82 -167 20 -37 83 -184 83
-193 0 -5 13 -40 28 -78 79 -191 188 -645 221 -919 12 -93 25 -201 31 -240 17
-121 33 -631 27 -845 -14 -464 -69 -886 -162 -1247 -40 -153 -126 -415 -161
-488 -13 -27 -37 -84 -55 -125 -17 -41 -37 -82 -44 -90 -7 -8 -16 -26 -20 -40
-4 -14 -23 -49 -41 -78 -19 -29 -34 -57 -34 -62 0 -6 -25 -47 -55 -91 -30 -44
-55 -82 -55 -84 0 -10 -60 -92 -80 -110 -12 -11 -25 -27 -29 -37 -14 -38 -200
-232 -277 -290 -24 -18 -46 -40 -49 -48 -6 -16 -128 -100 -145 -100 -5 0 -18
-8 -29 -17 -38 -36 -67 -55 -119 -78 -29 -13 -59 -30 -67 -38 -7 -8 -51 -29
-97 -47 -46 -19 -85 -36 -88 -40 -20 -24 -312 -91 -472 -109 -124 -14 -408
-14 -518 -1 -160 20 -432 86 -450 109 -3 3 -49 24 -102 45 -54 21 -99 42 -100
46 -2 4 -28 20 -58 35 -30 15 -62 33 -70 41 -8 7 -25 22 -37 34 -13 11 -28 20
-34 20 -19 0 -139 84 -144 102 -3 9 -18 24 -33 34 -36 23 -96 78 -146 133 -23
25 -65 70 -93 101 -29 31 -53 61 -53 66 0 5 -19 27 -41 49 -23 22 -45 49 -50
60 -20 41 -86 142 -110 169 -11 11 -19 25 -19 31 0 6 -15 36 -33 66 -18 30
-39 70 -46 89 -8 19 -20 42 -26 50 -7 8 -27 49 -44 90 -18 41 -39 91 -48 110
-14 31 -118 337 -158 465 -15 47 -25 95 -80 365 -26 129 -25 124 -62 425 -25
210 -26 243 -27 700 0 436 2 497 23 665 33 276 51 412 56 420 2 4 11 42 20 86
37 194 50 249 96 404 69 235 130 409 188 535 63 136 75 160 103 201 15 23 28
48 28 56 0 8 14 34 30 56 17 23 30 45 30 49 0 5 18 32 40 61 22 29 40 55 40
57 0 3 18 28 40 56 22 28 40 57 40 64 0 8 15 26 34 40 19 15 52 50 74 78 51
67 141 157 158 157 7 0 20 13 30 28 9 16 46 49 82 73 35 24 81 60 102 80 20
20 58 44 84 54 25 10 46 21 46 25 0 4 38 25 85 46 47 21 85 41 85 45 0 4 12
10 27 14 15 3 31 11 34 17 11 18 231 80 302 85 37 3 67 9 67 14 0 4 36 11 80
15 44 3 80 11 80 15 0 5 88 9 195 9 107 0 195 -4 195 -9z"/>
<path d="M68840 23292 c0 -4 -33 -13 -73 -19 -81 -13 -267 -70 -267 -82 0 -4
-27 -20 -60 -36 -33 -16 -60 -32 -60 -36 0 -4 -16 -13 -35 -19 -19 -6 -35 -15
-35 -19 0 -4 -29 -29 -65 -55 -36 -26 -65 -53 -65 -60 0 -6 -24 -32 -54 -56
-46 -39 -87 -88 -131 -159 -6 -9 -22 -34 -36 -56 -70 -107 -135 -275 -166
-425 -14 -68 -18 -133 -17 -320 0 -215 2 -245 26 -355 32 -149 90 -305 134
-366 19 -26 34 -52 34 -58 0 -16 123 -168 158 -195 15 -11 34 -28 43 -37 9 -9
36 -30 60 -47 24 -16 52 -41 62 -54 17 -24 109 -72 158 -82 14 -3 36 -14 48
-25 12 -11 37 -23 54 -27 18 -3 34 -10 37 -14 3 -4 48 -18 100 -31 85 -21 117
-24 305 -24 191 0 218 2 300 24 50 14 92 28 95 32 3 4 24 12 48 18 23 7 42 16
42 20 0 5 15 14 33 21 80 29 167 75 172 90 3 9 32 36 65 60 33 24 60 47 60 51
0 4 13 15 29 26 32 20 161 175 161 194 0 6 15 32 33 58 32 45 105 230 126 322
65 281 51 718 -28 939 -36 98 -66 169 -82 191 -10 15 -23 37 -28 51 -5 13 -25
45 -45 71 -20 26 -36 51 -36 55 -1 4 -26 27 -55 52 -30 24 -55 49 -55 55 0 7
-31 33 -70 60 -38 27 -70 52 -70 56 0 4 -16 13 -35 19 -19 6 -35 15 -35 19 0
4 -27 20 -60 36 -33 16 -60 31 -60 35 0 17 -268 90 -332 90 -27 0 -48 5 -48
10 0 6 -53 10 -140 10 -77 0 -140 -3 -140 -8z"/>
<path d="M31665 23154 c-207 -13 -276 -21 -285 -35 -3 -4 -52 -13 -110 -18
-57 -6 -106 -15 -109 -20 -4 -4 -66 -28 -140 -52 -83 -27 -136 -50 -138 -59
-4 -15 -158 -100 -180 -100 -7 0 -13 -4 -13 -9 0 -5 -8 -12 -18 -15 -37 -12
-177 -163 -234 -253 -79 -123 -154 -332 -188 -518 -46 -251 -44 95 -47 -6170
-3 -3938 0 -5944 7 -6115 5 -145 18 -311 29 -385 21 -137 60 -309 84 -366 8
-19 19 -47 25 -64 26 -74 66 -162 82 -180 10 -11 21 -30 24 -41 4 -12 15 -29
26 -39 11 -10 20 -24 20 -32 0 -12 55 -74 161 -182 52 -53 95 -88 144 -116 28
-16 56 -35 63 -42 7 -7 22 -13 32 -13 10 0 20 -4 22 -10 5 -17 169 -68 276
-85 142 -24 409 -16 532 14 106 27 200 61 200 72 0 5 9 9 19 9 11 0 26 6 33
13 7 7 36 26 63 42 28 15 66 42 85 59 82 74 196 194 210 221 8 17 25 43 37 58
13 16 23 33 23 38 0 5 9 23 21 38 20 27 58 110 81 176 6 17 17 45 25 64 22 53
62 223 86 366 l21 130 6 5260 c3 2893 8 5247 12 5230 4 -16 16 -70 27 -120 11
-49 32 -144 46 -210 15 -66 38 -167 50 -225 13 -58 35 -157 50 -220 14 -63 37
-167 50 -230 28 -127 50 -224 131 -580 20 -85 42 -182 49 -215 8 -33 39 -172
70 -310 31 -137 64 -288 75 -335 20 -91 87 -396 121 -545 11 -49 27 -121 35
-160 9 -38 22 -97 29 -130 8 -33 21 -89 29 -125 8 -36 19 -83 25 -105 6 -22
26 -114 46 -205 20 -91 42 -192 50 -225 15 -60 40 -172 76 -340 10 -49 28
-128 39 -175 11 -47 42 -188 70 -315 28 -126 71 -315 95 -420 24 -104 53 -233
65 -285 11 -52 24 -113 30 -135 5 -22 28 -123 50 -225 23 -102 47 -212 55
-245 48 -214 57 -257 71 -320 17 -77 31 -141 99 -440 53 -229 73 -322 110
-490 14 -66 34 -156 45 -200 45 -198 61 -271 95 -425 20 -91 42 -192 50 -225
8 -33 33 -143 55 -245 23 -102 52 -232 66 -290 14 -58 29 -123 34 -145 5 -22
30 -134 56 -250 25 -115 75 -334 111 -485 35 -151 71 -302 78 -335 37 -167 68
-288 90 -360 14 -44 39 -127 56 -185 47 -159 79 -252 98 -285 10 -16 30 -61
45 -100 37 -94 84 -191 116 -240 15 -22 34 -56 43 -76 9 -20 28 -44 42 -53 14
-9 25 -21 25 -27 0 -31 198 -232 292 -297 25 -17 48 -36 50 -41 1 -5 32 -23
67 -41 36 -18 71 -38 78 -46 8 -8 25 -14 39 -14 13 0 24 -4 24 -8 0 -12 158
-59 260 -78 111 -21 363 -29 515 -16 130 11 377 65 399 88 8 8 24 14 35 14 11
0 26 6 33 13 7 7 43 27 81 44 37 18 67 36 67 41 0 5 19 22 41 37 49 32 184
167 254 254 28 34 60 71 73 83 12 12 22 25 22 29 0 4 23 41 50 82 28 41 50 82
50 90 0 9 6 22 14 29 20 20 54 93 77 162 10 33 23 64 28 70 9 12 44 125 90
296 18 63 38 138 46 165 12 46 59 235 120 490 33 139 126 547 170 745 36 163
43 199 83 375 12 50 35 153 52 230 17 77 35 156 40 175 17 68 39 167 75 330
34 154 50 227 95 425 11 44 31 134 45 200 14 66 35 158 45 205 10 47 33 148
50 225 17 77 47 208 66 290 19 83 41 179 49 215 13 58 23 102 70 315 8 33 32
143 55 245 22 102 45 203 50 225 6 22 39 171 75 330 35 160 85 380 110 489 25
110 55 243 66 295 12 53 31 143 44 201 13 58 33 148 44 200 12 52 28 122 36
155 8 33 30 134 50 225 20 91 44 201 55 245 10 44 21 96 25 115 4 19 12 55 19
80 8 25 21 81 30 125 10 44 26 118 36 165 31 136 100 448 120 540 11 47 44
198 75 335 31 138 63 282 71 320 8 39 24 106 35 150 11 44 29 118 39 165 10
47 31 139 45 205 15 66 40 179 56 250 16 72 40 182 54 245 15 63 37 162 50
220 12 58 35 159 50 225 14 66 35 161 46 210 10 50 21 95 23 100 3 6 5 -2249
6 -5010 0 -2811 5 -5115 10 -5235 12 -299 46 -506 115 -715 31 -95 87 -226
106 -249 22 -27 89 -134 89 -143 0 -6 24 -33 53 -61 28 -28 63 -63 77 -79 39
-43 110 -102 160 -131 25 -14 51 -32 58 -39 7 -7 22 -13 32 -13 10 0 20 -4 22
-10 5 -16 167 -68 268 -86 119 -20 418 -15 520 10 101 25 220 67 220 77 0 5 9
9 19 9 11 0 26 6 33 13 7 7 36 26 63 42 28 15 66 42 85 59 82 74 196 194 210
221 8 17 25 43 37 58 13 16 23 33 23 38 0 5 9 23 21 38 20 27 58 110 81 176 6
17 17 45 25 64 22 53 62 223 86 366 l22 130 3 6090 c2 4369 0 6125 -8 6215
-33 373 -130 657 -291 852 -56 67 -139 146 -161 154 -10 3 -18 10 -18 15 0 5
-6 9 -12 9 -23 0 -177 85 -181 100 -2 9 -55 32 -138 59 -74 24 -136 48 -140
52 -3 5 -52 14 -109 20 -58 5 -107 14 -110 18 -8 13 -161 30 -365 41 -484 25
-1590 -2 -1615 -41 -3 -4 -52 -12 -109 -17 -57 -6 -107 -15 -110 -19 -3 -5
-35 -17 -71 -27 -85 -23 -200 -76 -200 -92 0 -7 -9 -16 -20 -19 -11 -4 -41
-22 -65 -41 -25 -19 -47 -34 -49 -34 -11 0 -79 -74 -122 -133 -110 -153 -171
-288 -259 -572 -31 -99 -65 -207 -75 -240 -11 -33 -23 -78 -29 -100 -5 -22
-30 -121 -56 -220 -26 -99 -53 -209 -61 -245 -7 -36 -20 -90 -28 -120 -16 -61
-33 -132 -71 -295 -14 -60 -34 -146 -45 -190 -11 -44 -36 -150 -56 -235 -20
-85 -53 -227 -74 -315 -21 -88 -54 -230 -74 -315 -21 -85 -50 -211 -67 -280
-16 -69 -40 -172 -54 -230 -14 -58 -43 -181 -65 -275 -22 -93 -52 -219 -66
-280 -14 -60 -31 -135 -39 -165 -8 -30 -32 -134 -55 -230 -22 -96 -49 -211
-60 -255 -23 -96 -42 -177 -115 -485 -53 -228 -101 -428 -150 -635 -86 -363
-109 -461 -130 -550 -13 -55 -37 -161 -55 -235 -17 -74 -37 -157 -44 -185 -8
-27 -20 -77 -26 -110 -6 -33 -18 -82 -25 -110 -8 -27 -21 -79 -29 -115 -8 -36
-26 -112 -40 -170 -14 -58 -66 -280 -116 -495 -50 -214 -97 -415 -105 -445 -8
-30 -25 -102 -39 -160 -27 -115 -93 -398 -131 -555 -23 -95 -56 -238 -111
-475 -13 -58 -31 -127 -38 -155 -8 -27 -17 -69 -21 -92 -4 -24 -10 -43 -15
-43 -5 0 -11 19 -15 43 -4 23 -13 65 -21 92 -7 28 -25 97 -38 155 -55 237 -88
380 -111 475 -38 157 -104 440 -131 555 -14 58 -31 130 -39 160 -8 30 -30 125
-50 210 -20 85 -47 200 -60 255 -13 55 -38 161 -55 235 -69 293 -110 467 -121
510 -6 25 -20 81 -30 125 -18 80 -33 142 -84 355 -15 63 -31 131 -35 150 -49
215 -62 269 -70 295 -5 17 -16 62 -24 100 -9 39 -31 135 -50 215 -32 135 -45
190 -97 410 -11 47 -30 130 -44 185 -13 55 -31 129 -39 165 -8 36 -33 142 -56
235 -22 94 -58 247 -80 340 -22 94 -47 197 -55 230 -17 73 -50 211 -76 325
-11 47 -26 108 -34 135 -7 28 -19 77 -25 110 -6 33 -17 83 -25 110 -7 28 -32
129 -54 225 -80 340 -128 546 -171 725 -11 44 -38 159 -60 255 -23 96 -47 200
-55 230 -8 30 -30 125 -50 210 -78 336 -97 417 -111 465 -7 28 -24 95 -38 150
-56 225 -114 433 -167 595 -56 169 -117 325 -151 383 -15 26 -28 51 -28 55 0
21 -175 239 -194 241 -4 1 -25 14 -45 30 -21 17 -49 35 -64 42 -15 7 -27 18
-27 24 0 16 -117 69 -200 91 -36 10 -68 22 -71 27 -3 4 -53 13 -110 19 -57 5
-106 13 -109 17 -27 42 -1216 66 -1695 35z"/>
<path d="M2661 22334 c0 -11 3 -14 6 -6 3 7 2 16 -1 19 -3 4 -6 -2 -5 -13z"/>
<path d="M754 21861 c4 -5 0 -12 -6 -14 -10 -4 -10 -6 0 -6 6 -1 12 -5 12 -11
0 -5 -4 -9 -9 -7 -5 1 -9 -1 -10 -5 -1 -5 1 -8 4 -8 58 0 60 0 45 11 -11 8
-12 12 -2 16 22 9 13 33 -14 33 -14 0 -23 -4 -20 -9z"/>
<path d="M49125 19334 c-169 -17 -369 -46 -375 -54 -3 -3 -51 -15 -107 -25
-57 -10 -103 -22 -103 -27 0 -4 -8 -8 -17 -8 -26 0 -237 -52 -243 -60 -3 -4
-39 -15 -80 -24 -135 -32 -225 -60 -240 -76 -8 -9 -71 -36 -139 -60 -68 -25
-132 -52 -143 -62 -11 -10 -29 -20 -39 -23 -11 -4 -19 -10 -19 -15 0 -5 -14
-11 -31 -15 -37 -8 -122 -45 -129 -56 -3 -4 -40 -23 -83 -43 -43 -19 -91 -49
-108 -65 -16 -17 -60 -45 -97 -62 -37 -18 -75 -39 -84 -48 -45 -41 -57 -50
-110 -80 -31 -17 -58 -35 -60 -39 -2 -4 -28 -26 -58 -48 -30 -23 -68 -54 -85
-70 -16 -16 -51 -45 -77 -63 -26 -19 -50 -41 -53 -50 -6 -16 -87 -81 -102 -81
-5 0 -39 -37 -76 -83 -37 -45 -88 -98 -112 -117 -24 -19 -44 -40 -45 -45 0 -6
-20 -31 -45 -55 -25 -25 -58 -63 -72 -85 -15 -22 -56 -74 -90 -116 -35 -43
-63 -82 -63 -87 0 -6 -24 -39 -52 -74 -29 -35 -59 -74 -66 -87 -8 -13 -23 -40
-34 -60 -11 -20 -29 -48 -39 -63 -11 -14 -19 -30 -19 -35 0 -4 -16 -31 -36
-58 -19 -28 -44 -68 -54 -90 -11 -22 -31 -58 -45 -80 -14 -22 -32 -56 -40 -75
-9 -19 -31 -66 -49 -105 -101 -208 -167 -354 -176 -390 -4 -16 -22 -68 -40
-115 -17 -47 -36 -96 -40 -110 -5 -14 -23 -63 -40 -110 -48 -130 -159 -533
-180 -655 -5 -27 -16 -81 -25 -120 -39 -179 -89 -529 -121 -850 -21 -217 -30
-923 -15 -1205 27 -515 97 -1015 197 -1404 14 -56 28 -112 31 -126 3 -14 14
-54 25 -90 11 -36 35 -118 54 -183 19 -65 39 -126 44 -135 6 -9 21 -51 34 -92
13 -41 33 -95 44 -120 12 -25 37 -85 56 -135 19 -49 51 -123 70 -163 20 -40
36 -77 36 -82 0 -5 14 -33 31 -61 17 -29 48 -87 70 -128 41 -80 60 -114 128
-224 22 -37 41 -70 41 -74 0 -3 25 -39 55 -79 30 -40 55 -78 55 -83 0 -6 20
-35 45 -65 25 -31 45 -59 45 -62 0 -3 17 -27 39 -53 21 -25 62 -77 92 -116 29
-38 76 -93 103 -121 28 -28 80 -86 116 -128 36 -42 72 -79 80 -81 8 -3 26 -21
40 -39 14 -19 51 -56 83 -82 31 -26 57 -52 57 -56 0 -12 52 -57 67 -58 6 0 29
-17 52 -37 53 -50 85 -78 122 -104 17 -12 43 -33 57 -46 15 -14 51 -36 80 -49
28 -12 52 -29 52 -36 0 -7 39 -35 88 -63 90 -51 100 -58 132 -87 24 -21 67
-43 102 -52 15 -3 33 -12 40 -19 7 -8 51 -31 98 -52 47 -21 91 -44 98 -52 7
-7 19 -13 27 -13 7 0 15 -4 17 -8 4 -12 185 -80 231 -87 20 -3 37 -10 37 -14
0 -5 12 -12 27 -16 15 -3 30 -10 33 -15 3 -5 64 -26 135 -46 72 -21 132 -42
135 -46 3 -4 69 -22 145 -39 77 -18 143 -36 146 -41 3 -4 41 -11 85 -14 43 -4
81 -11 84 -15 7 -10 304 -53 530 -76 143 -15 263 -18 655 -17 453 0 494 2 725
28 251 27 421 54 430 66 3 4 38 10 79 13 41 3 77 10 80 15 3 5 26 13 51 17 57
9 223 55 230 64 3 4 63 24 135 45 71 20 132 41 135 45 3 5 15 11 28 15 12 4
22 11 22 16 0 5 17 12 38 16 49 9 226 74 230 85 2 5 10 9 17 9 8 0 21 7 29 15
9 9 50 32 92 51 41 19 82 41 91 49 8 8 26 18 41 21 15 3 42 12 60 20 32 14 45
23 81 54 9 9 56 38 104 65 48 27 87 54 87 60 0 9 15 19 91 54 14 7 41 27 61
44 20 18 53 46 75 64 21 18 55 47 75 64 21 18 55 42 75 53 21 12 42 31 48 42
6 12 33 40 60 64 76 66 255 252 270 281 8 15 33 43 56 62 23 20 47 47 54 60 7
13 45 67 84 120 39 52 71 98 71 102 0 3 13 25 28 48 15 23 34 56 42 72 8 17
32 56 52 88 20 32 42 75 49 95 6 20 24 60 39 87 30 53 115 308 147 435 28 115
25 439 -5 530 -12 36 -22 75 -22 87 0 12 -4 24 -9 27 -5 3 -21 35 -36 70 -15
35 -46 85 -69 111 -115 130 -188 195 -220 195 -19 0 -86 31 -104 48 -7 6 -22
12 -32 12 -10 0 -20 4 -22 9 -7 20 -164 42 -293 43 -138 0 -299 -24 -323 -49
-7 -7 -20 -13 -28 -13 -8 0 -14 -4 -14 -9 0 -5 -27 -19 -60 -31 -64 -24 -109
-62 -209 -178 -30 -34 -60 -62 -66 -62 -7 0 -21 -12 -30 -27 -10 -16 -44 -55
-76 -88 -277 -284 -346 -353 -362 -358 -9 -4 -20 -15 -24 -24 -8 -23 -202
-211 -225 -219 -10 -3 -18 -9 -18 -14 0 -5 -25 -28 -55 -52 -30 -24 -58 -50
-60 -59 -5 -16 -115 -99 -131 -99 -4 0 -19 -13 -34 -29 -15 -16 -50 -43 -76
-62 -27 -18 -52 -38 -57 -45 -4 -7 -30 -26 -58 -44 -28 -17 -59 -39 -70 -49
-10 -9 -61 -39 -111 -66 -91 -48 -102 -55 -134 -84 -22 -20 -171 -82 -289
-121 -55 -18 -102 -37 -105 -41 -3 -4 -25 -11 -48 -15 -23 -4 -42 -10 -42 -14
0 -9 -122 -35 -260 -56 -138 -20 -561 -30 -703 -15 -121 12 -359 58 -367 70
-3 4 -18 11 -35 15 -16 4 -32 11 -35 15 -3 4 -48 22 -100 41 -107 37 -253 102
-275 122 -27 24 -40 33 -120 83 -44 27 -89 59 -100 70 -11 12 -36 32 -55 45
-54 36 -144 118 -171 155 -7 11 -32 35 -54 53 -22 18 -53 51 -70 72 -16 21
-50 64 -75 95 -25 32 -49 65 -55 74 -33 54 -88 131 -100 141 -8 7 -15 20 -15
30 0 10 -6 23 -14 29 -8 6 -37 60 -66 119 -29 59 -57 110 -62 113 -9 6 -78
167 -78 184 0 5 -7 24 -16 40 -16 31 -26 56 -70 180 -28 79 -113 396 -124 465
-42 255 -62 427 -70 595 -6 110 -12 212 -13 228 l-4 27 2529 0 c2419 0 2810 4
2828 29 3 4 52 13 110 20 131 15 354 60 358 72 2 4 19 11 38 15 19 3 34 10 34
15 0 5 13 9 29 9 35 0 233 71 255 91 30 27 42 35 109 72 37 21 67 41 67 45 0
4 16 16 36 27 19 10 45 33 57 49 11 17 38 52 59 77 21 25 38 49 38 54 0 4 11
22 24 39 28 38 96 175 96 196 0 8 7 27 14 43 29 54 76 271 97 447 16 135 16
553 0 740 -28 327 -85 628 -186 990 -25 92 -125 380 -144 419 -10 20 -21 49
-25 65 -4 16 -22 61 -40 100 -19 39 -50 109 -70 156 -20 47 -43 96 -51 110 -7
14 -35 68 -61 120 -26 52 -67 124 -90 160 -23 36 -51 81 -62 101 -11 20 -26
47 -34 60 -7 13 -37 54 -65 91 -29 37 -53 72 -53 78 0 11 -151 203 -229 291
-23 25 -41 50 -42 55 0 5 -23 29 -51 53 -29 24 -70 66 -93 95 -24 28 -60 65
-81 81 -21 17 -70 62 -108 101 -39 38 -86 79 -103 89 -18 11 -33 23 -33 27 0
4 -29 28 -65 53 -36 26 -65 50 -65 53 0 4 -28 25 -63 47 -34 22 -73 52 -87 66
-14 15 -50 39 -81 54 -31 15 -69 38 -85 51 -16 13 -34 27 -39 32 -6 5 -42 26
-80 47 -39 21 -72 42 -75 46 -10 13 -89 49 -108 49 -10 0 -29 9 -42 20 -13 11
-34 23 -47 26 -13 4 -23 10 -23 14 0 8 -101 52 -197 86 -29 10 -53 22 -53 26
0 4 -6 8 -14 8 -8 0 -16 4 -18 9 -4 10 -122 51 -149 51 -27 0 -133 30 -139 40
-5 8 -141 43 -212 56 -21 3 -38 9 -38 13 0 4 -46 16 -102 26 -57 10 -105 22
-108 26 -6 8 -278 46 -430 59 -169 15 -1006 11 -1165 -6z m843 -1890 c4 -6 34
-14 67 -17 68 -8 257 -48 265 -56 3 -3 57 -24 120 -45 63 -22 121 -45 128 -50
7 -6 19 -17 27 -23 7 -7 20 -13 29 -13 24 0 163 -75 188 -102 13 -14 47 -40
76 -58 29 -17 57 -40 63 -51 5 -10 16 -19 25 -19 16 0 175 -160 202 -203 9
-15 24 -29 32 -32 16 -5 99 -111 130 -166 8 -15 27 -42 42 -60 15 -19 41 -59
57 -89 47 -85 151 -299 151 -311 0 -5 9 -27 20 -48 76 -151 192 -595 240 -926
21 -146 50 -424 50 -482 l0 -33 -2210 0 -2210 0 0 23 c0 48 32 291 61 467 54
333 167 738 259 937 11 24 20 47 20 52 0 13 121 250 146 286 11 17 26 44 33
62 7 18 20 38 28 45 8 7 34 42 58 78 24 36 50 72 59 79 9 7 16 18 16 24 0 6
18 30 39 52 21 22 70 73 108 114 94 102 125 131 141 131 7 0 15 7 18 15 3 8
27 28 54 45 26 17 65 47 85 66 35 33 162 104 185 104 10 0 21 7 54 36 7 7 64
29 127 50 63 22 116 42 119 45 8 10 171 47 238 55 34 3 62 10 62 15 0 14 66
17 333 15 175 -1 260 -5 265 -12z"/>
<path d="M68790 19333 c-71 -10 -210 -45 -210 -52 0 -5 -21 -14 -46 -21 -25
-7 -51 -19 -58 -25 -7 -7 -35 -24 -63 -39 -29 -14 -64 -37 -79 -51 -15 -14
-34 -25 -42 -25 -22 0 -262 -262 -262 -286 0 -3 -13 -24 -29 -47 -15 -23 -32
-53 -36 -67 -4 -14 -17 -43 -30 -65 -26 -46 -86 -229 -109 -330 -28 -127 -47
-285 -56 -489 -6 -118 -10 -1795 -10 -4046 0 -2251 4 -3928 10 -4046 5 -111
16 -250 25 -310 19 -134 71 -346 96 -396 11 -21 19 -44 19 -52 0 -17 71 -168
102 -216 13 -19 37 -57 53 -85 29 -48 94 -122 164 -188 19 -18 49 -45 65 -61
17 -15 51 -40 76 -54 25 -15 51 -32 58 -39 7 -7 22 -13 32 -13 10 0 20 -5 22
-10 5 -17 165 -68 268 -86 118 -20 408 -14 510 10 89 22 210 66 210 77 0 5 9
9 19 9 11 0 26 6 33 13 7 6 30 21 51 32 22 11 49 29 61 40 12 11 44 38 72 60
27 21 53 46 58 54 5 8 33 36 62 64 29 27 56 59 60 71 4 11 20 37 35 56 16 19
29 40 29 46 0 6 8 18 18 27 17 15 80 150 112 237 28 79 73 263 93 385 l22 130
0 4270 0 4270 -22 115 c-38 201 -100 398 -148 467 -14 21 -25 43 -25 49 0 7
-16 35 -35 64 -19 29 -35 56 -35 60 0 5 -11 17 -25 28 -14 11 -25 25 -25 31 0
6 -34 46 -75 89 -42 42 -83 85 -93 95 -9 10 -41 30 -69 44 -29 15 -53 30 -53
34 0 5 -24 21 -52 35 -29 15 -55 30 -58 34 -3 4 -27 15 -55 25 -27 11 -52 22
-55 26 -7 10 -111 35 -197 48 -67 10 -327 13 -383 4z"/>
<path d="M95145 19333 c-121 -7 -460 -44 -465 -51 -3 -5 -57 -16 -120 -26 -63
-10 -117 -21 -120 -25 -3 -4 -66 -20 -140 -35 -74 -15 -137 -31 -140 -35 -3
-5 -41 -16 -85 -26 -132 -28 -235 -57 -235 -66 0 -5 -7 -9 -15 -9 -8 0 -15 -4
-15 -10 0 -5 -5 -10 -11 -10 -21 0 -269 -92 -269 -100 0 -4 -10 -10 -23 -14
-13 -3 -34 -15 -47 -26 -13 -11 -31 -20 -41 -20 -20 0 -107 -39 -125 -56 -7
-6 -46 -25 -88 -44 -42 -18 -76 -37 -76 -41 0 -5 -7 -9 -15 -9 -9 0 -18 -6
-21 -14 -3 -8 -44 -34 -92 -57 -47 -23 -95 -52 -106 -64 -12 -13 -51 -40 -86
-61 -36 -21 -69 -43 -75 -49 -5 -6 -29 -23 -51 -38 -23 -16 -59 -43 -80 -62
-22 -19 -63 -52 -91 -73 -29 -20 -55 -44 -58 -52 -5 -14 -87 -80 -99 -80 -9 0
-90 -82 -128 -130 -20 -25 -55 -58 -77 -75 -22 -16 -41 -35 -41 -42 0 -6 -23
-31 -50 -54 -28 -24 -61 -59 -73 -78 -12 -20 -52 -71 -89 -114 -38 -44 -68
-83 -68 -89 0 -6 -27 -41 -60 -78 -33 -37 -60 -71 -60 -75 0 -3 -11 -21 -25
-39 -14 -18 -25 -36 -25 -40 0 -4 -11 -22 -25 -40 -14 -18 -25 -36 -25 -40 0
-4 -20 -36 -45 -70 -25 -35 -45 -68 -45 -74 0 -5 -16 -33 -35 -61 -19 -28 -35
-55 -35 -61 0 -5 -4 -10 -9 -10 -5 0 -14 -15 -21 -32 -18 -44 -80 -179 -91
-198 -5 -8 -27 -53 -50 -100 -22 -47 -51 -105 -64 -130 -12 -25 -28 -61 -33
-80 -6 -19 -20 -60 -32 -90 -53 -136 -73 -188 -85 -227 -8 -24 -21 -58 -29
-75 -27 -59 -143 -468 -166 -588 -5 -25 -18 -88 -30 -140 -11 -52 -24 -120
-29 -150 -5 -30 -17 -95 -25 -144 -23 -126 -52 -361 -73 -576 -26 -266 -25
-1142 0 -1405 48 -491 115 -878 212 -1230 8 -27 24 -86 35 -129 12 -44 26 -87
30 -95 4 -9 24 -63 43 -121 38 -114 85 -242 122 -330 12 -30 38 -93 56 -140
18 -47 40 -96 48 -110 9 -14 29 -52 45 -85 78 -162 164 -326 181 -345 8 -9 15
-20 15 -24 0 -4 20 -36 45 -70 25 -35 45 -68 45 -73 0 -5 32 -55 70 -111 39
-56 70 -104 70 -108 0 -4 17 -26 38 -50 61 -71 95 -114 163 -204 35 -47 86
-108 114 -135 27 -28 82 -85 120 -127 39 -43 75 -77 80 -78 6 0 28 -22 49 -50
21 -27 60 -66 87 -86 27 -20 49 -41 49 -47 0 -11 19 -25 94 -72 16 -10 43 -30
60 -46 17 -16 57 -52 88 -81 31 -29 72 -60 90 -69 94 -46 108 -54 108 -64 0
-6 37 -32 81 -59 45 -27 90 -56 99 -65 50 -45 73 -59 114 -70 24 -6 50 -17 58
-24 7 -7 50 -30 96 -52 45 -21 82 -42 82 -47 0 -4 6 -8 14 -8 8 0 21 -6 28
-14 29 -28 166 -86 205 -86 12 0 28 -7 36 -15 8 -7 26 -17 41 -21 14 -3 26 -9
26 -13 0 -4 55 -25 123 -46 67 -21 124 -41 127 -45 3 -3 66 -22 140 -41 74
-18 138 -37 141 -42 3 -4 37 -10 75 -14 38 -3 71 -9 74 -14 7 -10 294 -53 500
-76 237 -26 981 -26 1220 0 211 23 503 67 510 76 3 5 36 11 74 14 38 4 72 10
75 14 3 5 68 23 143 42 75 18 138 36 140 40 2 3 60 24 131 45 70 22 127 42
127 46 0 5 12 11 26 14 15 4 33 14 41 21 8 8 26 15 40 15 26 0 188 65 210 84
7 6 19 16 26 23 8 6 52 29 98 50 46 20 90 43 97 50 8 7 33 18 56 24 24 6 54
20 69 32 14 12 35 30 46 39 11 10 57 39 101 64 44 26 80 52 80 58 0 11 14 19
108 65 18 9 57 39 87 66 72 68 144 128 164 139 43 22 81 52 81 63 0 6 22 27
49 47 27 20 66 59 87 86 21 28 42 50 47 50 5 0 42 35 81 77 39 43 99 106 134
141 34 34 62 69 62 75 0 7 16 28 35 47 19 19 35 38 35 43 0 6 17 29 38 53 66
76 126 154 152 197 14 23 46 74 73 114 26 39 47 74 47 78 0 4 19 35 42 68 78
117 93 142 113 187 11 25 32 68 48 95 15 28 33 61 38 75 6 14 38 79 70 145 32
66 71 152 85 190 72 193 86 232 91 250 3 11 10 25 14 31 11 14 110 317 142
434 86 319 137 569 181 900 55 410 61 518 61 1070 0 529 -5 625 -51 1000 -27
224 -98 616 -143 790 -70 269 -129 470 -151 510 -7 13 -17 38 -21 55 -4 16
-34 99 -67 183 -33 84 -63 165 -67 179 -3 15 -15 38 -26 51 -10 14 -19 29 -19
33 0 15 -83 184 -91 187 -5 2 -9 9 -9 16 0 7 -18 48 -40 91 -22 43 -40 84 -40
90 0 6 -9 21 -20 33 -11 12 -20 24 -20 27 0 3 -16 28 -35 56 -19 28 -35 56
-35 61 0 5 -20 38 -45 72 -25 35 -45 67 -45 70 0 4 -11 22 -25 40 -14 18 -25
36 -25 41 0 11 -67 100 -122 164 -27 30 -48 58 -48 64 0 5 -28 43 -62 83 -35
40 -79 94 -98 119 -19 25 -56 64 -82 86 -27 22 -48 46 -48 52 -1 7 -21 28 -46
47 -25 19 -57 51 -72 70 -32 43 -117 130 -127 130 -14 0 -95 64 -100 79 -3 9
-31 34 -62 56 -31 22 -72 55 -91 72 -19 18 -55 46 -81 63 -25 16 -53 35 -61
43 -8 8 -37 27 -65 42 -27 16 -58 36 -67 44 -10 9 -26 23 -35 32 -10 9 -47 30
-83 47 -36 17 -77 40 -90 51 -14 11 -30 25 -36 30 -7 5 -49 27 -95 47 -46 21
-86 41 -89 45 -10 13 -90 49 -108 49 -10 0 -29 9 -42 20 -12 11 -32 22 -44 26
-11 4 -23 10 -26 15 -6 9 -247 99 -267 99 -7 0 -13 5 -13 10 0 6 -7 10 -15 10
-8 0 -15 4 -15 9 0 9 -103 38 -235 66 -44 10 -82 21 -85 26 -3 4 -66 20 -140
35 -74 15 -137 31 -140 35 -3 4 -57 15 -120 25 -63 10 -117 21 -120 25 -6 8
-250 36 -435 49 -127 9 -674 11 -820 3z m661 -2034 c60 -6 111 -15 114 -19 3
-5 33 -12 68 -16 34 -3 62 -11 62 -15 0 -5 14 -9 31 -9 62 0 289 -70 317 -97
7 -7 20 -13 28 -13 8 0 14 -4 14 -9 0 -4 21 -16 48 -26 50 -19 109 -51 130
-72 7 -7 20 -13 27 -13 20 0 86 -40 115 -71 14 -14 50 -43 80 -65 30 -21 71
-54 91 -74 20 -19 51 -49 70 -65 19 -17 60 -59 91 -95 31 -36 75 -83 98 -105
22 -22 40 -47 40 -56 0 -8 12 -26 26 -40 23 -21 113 -149 123 -174 2 -5 19
-31 37 -56 19 -26 34 -52 34 -59 0 -7 14 -32 30 -57 17 -24 30 -46 30 -49 0
-2 24 -55 53 -117 29 -62 63 -137 74 -167 45 -115 93 -249 93 -257 0 -5 18
-67 39 -139 22 -71 44 -154 50 -184 5 -30 19 -98 31 -150 33 -152 77 -487 95
-720 13 -170 16 -300 12 -615 -5 -424 -11 -524 -53 -835 -44 -336 -133 -704
-229 -955 -15 -38 -37 -97 -49 -130 -22 -57 -49 -116 -74 -160 -6 -11 -34 -66
-61 -123 -28 -57 -57 -110 -65 -117 -8 -8 -37 -54 -65 -102 -27 -49 -63 -101
-80 -117 -17 -17 -31 -34 -31 -39 0 -17 -106 -141 -202 -238 -54 -54 -98 -102
-98 -106 0 -9 -113 -93 -124 -93 -3 0 -22 -16 -42 -35 -20 -20 -54 -45 -74
-55 -21 -11 -44 -26 -52 -34 -8 -7 -48 -31 -89 -52 -41 -21 -76 -41 -79 -45
-10 -12 -216 -87 -287 -105 -40 -10 -73 -22 -73 -25 0 -4 -18 -10 -40 -14 -22
-4 -40 -10 -40 -14 0 -5 -57 -16 -127 -27 -183 -27 -608 -27 -775 0 -65 11
-118 22 -118 26 0 4 -18 10 -39 14 -22 3 -41 10 -43 14 -1 4 -39 17 -83 29
-93 25 -240 80 -258 96 -6 7 -45 28 -85 47 -41 19 -77 39 -80 45 -4 6 -27 23
-52 37 -25 14 -55 35 -67 45 -12 11 -32 27 -45 36 -105 77 -134 100 -142 114
-11 20 -126 133 -135 133 -4 0 -14 12 -23 28 -10 15 -44 58 -78 96 -33 38 -60
74 -60 80 0 6 -15 26 -34 46 -19 19 -45 55 -58 80 -27 51 -49 87 -89 147 -16
23 -29 45 -29 50 0 5 -24 56 -53 114 -30 57 -66 136 -81 174 -15 39 -36 90
-46 115 -17 38 -86 256 -135 425 -28 96 -106 499 -120 624 -9 69 -23 189 -32
266 -25 208 -24 1037 1 1250 31 268 57 459 66 495 5 19 23 105 40 190 50 250
166 617 250 795 15 33 39 85 51 115 13 30 36 74 51 96 15 23 28 47 28 53 0 6
25 51 55 99 31 48 61 96 68 107 6 11 29 41 49 67 21 26 38 53 38 62 0 8 20 31
44 51 24 19 56 54 72 77 42 62 195 208 277 266 29 20 59 43 67 50 70 61 89 74
122 83 21 5 38 13 38 18 0 4 37 25 83 46 45 22 88 45 95 52 7 7 20 13 28 13 8
0 14 4 14 9 0 15 217 82 283 88 31 3 57 9 57 13 0 4 25 11 55 15 30 3 55 10
55 15 0 25 461 39 656 19z"/>
<path d="M103285 19334 c-69 -10 -215 -46 -215 -53 0 -5 -21 -14 -46 -21 -25
-7 -51 -19 -58 -25 -7 -7 -36 -25 -64 -39 -29 -15 -52 -30 -52 -34 0 -5 -21
-19 -47 -32 -25 -13 -58 -35 -72 -49 -70 -70 -161 -175 -161 -186 0 -7 -6 -15
-14 -18 -15 -6 -75 -105 -93 -156 -7 -18 -21 -47 -32 -65 -41 -69 -102 -288
-132 -481 -38 -242 -41 -500 -36 -3455 4 -2489 6 -2872 20 -3065 33 -445 70
-719 139 -1025 45 -199 75 -309 124 -450 50 -143 66 -181 162 -390 8 -19 28
-51 44 -71 15 -20 28 -41 28 -47 0 -5 16 -33 35 -62 19 -29 35 -55 35 -59 0
-4 8 -16 18 -27 9 -11 26 -35 36 -54 11 -19 39 -58 63 -87 23 -28 43 -56 43
-61 0 -6 20 -27 45 -48 25 -20 45 -41 45 -46 0 -23 154 -187 176 -188 13 -1
54 -37 54 -48 0 -5 20 -26 43 -45 24 -20 67 -58 95 -85 28 -27 71 -57 96 -66
25 -10 46 -21 46 -25 0 -5 27 -25 61 -46 33 -20 74 -51 91 -67 29 -29 146 -88
172 -88 7 0 24 -9 37 -20 13 -11 29 -23 34 -28 6 -5 55 -26 110 -47 55 -22
102 -42 105 -46 6 -8 195 -69 214 -69 8 0 16 -5 18 -10 2 -6 28 -13 58 -17 30
-3 57 -9 60 -13 7 -10 203 -47 355 -67 185 -25 795 -25 1010 -1 168 20 397 58
405 69 3 3 31 8 63 11 33 3 62 9 65 15 4 5 64 24 135 43 70 18 127 36 127 40
0 4 47 24 105 45 58 20 105 41 105 45 0 5 14 11 30 15 17 4 30 11 30 16 0 5
12 12 27 15 34 9 173 73 190 88 27 24 40 33 102 71 36 21 73 47 83 57 10 10
25 18 33 18 21 0 63 28 100 66 17 16 58 50 93 74 34 23 62 47 62 52 0 13 42
47 58 48 7 0 57 44 111 98 53 53 118 114 144 135 26 21 47 42 47 46 0 4 26 35
58 67 124 128 237 257 247 279 6 13 36 49 68 80 31 31 57 62 57 69 0 7 11 23
25 36 14 13 25 27 25 32 0 5 21 36 48 68 26 33 61 77 78 99 l32 41 5 -318 c3
-210 10 -349 20 -412 17 -107 54 -272 70 -310 6 -14 16 -43 23 -65 20 -65 65
-169 83 -190 10 -11 23 -31 29 -45 27 -55 83 -135 124 -177 123 -127 155 -157
197 -186 25 -17 52 -37 59 -44 7 -7 22 -13 33 -13 10 0 19 -4 19 -9 0 -22 252
-101 323 -101 15 0 27 -4 27 -10 0 -6 53 -10 140 -10 87 0 140 4 140 10 0 6
11 10 24 10 75 0 336 78 336 101 0 5 8 9 18 9 10 0 34 14 52 30 18 17 37 30
42 30 28 0 231 213 266 280 11 19 31 55 45 80 82 139 132 296 184 580 16 89
18 348 21 4330 3 4308 3 4359 -33 4565 -29 165 -89 369 -132 445 -11 19 -24
46 -29 60 -16 43 -76 141 -90 147 -8 3 -14 11 -14 18 0 11 -91 116 -161 186
-14 14 -47 36 -72 49 -26 13 -47 27 -47 32 0 4 -23 19 -52 34 -28 14 -57 32
-64 39 -7 6 -33 18 -58 25 -25 7 -46 16 -46 20 0 5 -42 19 -92 31 -83 21 -117
23 -308 23 -191 0 -225 -2 -307 -23 -51 -12 -93 -26 -93 -30 0 -4 -25 -15 -55
-25 -30 -9 -55 -20 -55 -25 0 -4 -27 -20 -60 -36 -33 -16 -60 -33 -60 -37 0
-5 -19 -18 -42 -28 -24 -11 -53 -29 -65 -42 -12 -13 -49 -49 -82 -81 -33 -32
-67 -74 -76 -93 -9 -19 -20 -34 -25 -34 -4 0 -23 -24 -41 -52 -118 -192 -198
-422 -234 -682 -30 -210 -35 -528 -35 -2466 0 -1116 -4 -2079 -10 -2245 -21
-599 -62 -1039 -126 -1360 -31 -159 -59 -242 -129 -390 -117 -246 -137 -285
-164 -309 -11 -11 -21 -23 -21 -28 0 -5 -11 -24 -25 -42 -14 -18 -25 -36 -25
-39 0 -15 -72 -106 -95 -121 -14 -9 -25 -22 -25 -28 0 -6 -25 -39 -57 -72 -31
-34 -72 -78 -91 -98 -19 -21 -41 -38 -49 -38 -7 0 -16 -6 -19 -13 -3 -8 -32
-34 -64 -58 -33 -24 -62 -51 -65 -61 -6 -17 -124 -98 -143 -98 -7 0 -12 -4
-12 -9 0 -5 -13 -14 -30 -21 -16 -7 -30 -16 -30 -21 0 -5 -28 -23 -62 -40 -35
-17 -65 -35 -68 -38 -6 -8 -108 -53 -162 -72 -21 -7 -38 -16 -38 -20 0 -9
-198 -63 -315 -86 -73 -15 -140 -18 -350 -18 -231 0 -272 3 -368 23 -131 27
-267 69 -267 82 0 6 -6 10 -13 10 -19 0 -157 68 -157 77 0 5 -16 17 -37 28
-20 11 -56 39 -80 62 -24 24 -47 43 -52 43 -11 0 -84 82 -146 164 -27 36 -53
66 -56 66 -4 0 -14 15 -23 33 -19 36 -29 53 -68 114 -16 23 -28 48 -28 57 0 8
-5 18 -10 21 -15 9 -44 70 -70 145 -12 36 -30 79 -40 95 -10 17 -21 46 -25 65
-4 19 -19 78 -35 130 -73 246 -124 580 -162 1050 -20 256 -21 349 -27 2850 -4
1422 -10 2594 -13 2605 -4 11 -12 56 -18 100 -23 168 -91 396 -154 518 -55
106 -105 187 -116 187 -5 0 -16 15 -25 34 -9 19 -43 61 -76 93 -33 32 -70 68
-82 81 -12 13 -41 31 -64 42 -24 10 -43 23 -43 28 0 4 -27 21 -60 37 -33 16
-60 32 -60 36 0 4 -24 15 -52 25 -29 9 -56 21 -59 25 -3 5 -45 18 -95 30 -70
16 -130 22 -279 24 -104 2 -203 1 -220 -1z"/>
<path d="M1126 18244 c-4 -9 -2 -13 5 -8 8 4 9 -1 4 -17 -5 -19 -4 -21 4 -9
13 18 14 50 2 50 -5 0 -12 -7 -15 -16z"/>
<path d="M1171 18234 c-6 -15 -9 -29 -6 -32 3 -3 5 1 5 9 0 11 2 11 8 1 6 -8
9 -2 9 18 0 16 -1 30 -2 30 -1 0 -7 -12 -14 -26z"/>
<path d="M1488 17153 c6 -2 18 -2 25 0 6 3 1 5 -13 5 -14 0 -19 -2 -12 -5z"/>
<path d="M1352 17068 l3 -53 53 -3 52 -3 0 55 0 56 -56 0 -55 0 3 -52z m51
-35 c-7 -2 -21 -2 -30 0 -10 3 -4 5 12 5 17 0 24 -2 18 -5z"/>
<path d="M1505 16990 c3 -5 8 -10 11 -10 2 0 4 5 4 10 0 6 -5 10 -11 10 -5 0
-7 -4 -4 -10z"/>
<path d="M1561 16973 c0 -6 -4 -20 -7 -30 -5 -14 -4 -15 5 -7 7 7 11 20 8 30
-3 11 -5 14 -6 7z"/>
<path d="M1500 16946 c0 -2 7 -7 16 -10 8 -3 12 -2 9 4 -6 10 -25 14 -25 6z"/>
<path d="M27720 16615 c0 -8 7 -15 15 -15 8 0 15 4 15 9 0 5 -7 11 -15 15 -9
3 -15 0 -15 -9z"/>
<path d="M17421 16548 c-1 -21 -17 -24 -24 -5 -3 6 -6 -3 -6 -20 -1 -29 2 -33
24 -33 26 0 28 8 15 50 -5 17 -8 19 -9 8z"/>
<path d="M27770 16516 c0 -19 -6 -26 -27 -29 -16 -3 4 -4 42 -3 69 1 70 2 73
29 3 26 2 27 -42 27 -42 0 -46 -2 -46 -24z"/>
<path d="M4770 15101 c-27 -6 -34 -31 -11 -39 10 -3 12 0 8 12 -5 11 -1 16 13
16 18 0 22 -5 19 -27 -1 -5 -5 -7 -10 -5 -5 1 -9 -5 -9 -15 0 -15 1 -15 18 0
19 17 23 59 6 63 -5 1 -20 -1 -34 -5z"/>
<path d="M4734 14966 c-13 -35 0 -51 39 -48 36 3 37 3 27 -22 -7 -19 -6 -24 4
-20 7 3 13 25 15 52 l2 47 -41 3 c-28 2 -42 -2 -46 -12z"/>
<path d="M9568 14533 c7 -3 16 -2 19 1 4 3 -2 6 -13 5 -11 0 -14 -3 -6 -6z"/>
<path d="M2600 14479 c0 -5 5 -7 10 -4 6 3 10 8 10 11 0 2 -4 4 -10 4 -5 0
-10 -5 -10 -11z"/>
<path d="M2651 14324 c0 -11 3 -14 6 -6 3 7 2 16 -1 19 -3 4 -6 -2 -5 -13z"/>
<path d="M2618 14303 c7 -3 16 -2 19 1 4 3 -2 6 -13 5 -11 0 -14 -3 -6 -6z"/>
<path d="M25876 13052 c-12 -19 2 -46 27 -53 25 -7 27 -5 27 27 0 29 -3 34
-24 34 -14 0 -27 -4 -30 -8z"/>
<path d="M19360 11855 c0 -34 1 -35 40 -35 41 0 52 -14 29 -37 -6 -6 -8 -17
-4 -23 6 -9 9 -9 16 1 6 11 9 11 13 -1 2 -8 7 -22 9 -30 3 -8 6 11 6 42 1 31
4 63 7 72 3 9 1 16 -5 16 -6 0 -11 -17 -12 -37 0 -23 -3 -32 -7 -23 -13 29
-67 90 -79 90 -8 0 -13 -14 -13 -35z"/>
<path d="M19251 11720 c0 -8 4 -22 9 -30 12 -18 12 -2 0 25 -6 13 -9 15 -9 5z"/>
<path d="M19375 11710 c-3 -5 -1 -10 4 -10 6 0 11 5 11 10 0 6 -2 10 -4 10 -3
0 -8 -4 -11 -10z"/>
<path d="M19420 11706 c0 -2 7 -7 16 -10 8 -3 12 -2 9 4 -6 10 -25 14 -25 6z"/>
<path d="M24220 10591 c0 -5 7 -11 14 -14 10 -4 13 -1 9 9 -6 15 -23 19 -23 5z"/>
<path d="M8767 9143 c-4 -3 -7 -21 -7 -39 0 -30 2 -32 33 -29 30 2 32 5 33 39
1 25 -3 36 -13 36 -8 0 -11 -5 -7 -12 6 -10 4 -10 -7 0 -15 14 -23 15 -32 5z"/>
<path d="M8842 9110 c0 -19 2 -27 5 -17 2 9 2 25 0 35 -3 9 -5 1 -5 -18z"/>
<path d="M9488 7958 l-3 -243 -65 -2 c-36 -1 -86 -2 -112 -2 l-48 -1 0 -125 0
-125 -45 0 -45 0 0 -75 c0 -73 -1 -75 -25 -75 l-25 0 0 -165 0 -165 -105 0
-105 0 0 -210 0 -210 105 0 105 0 0 -115 0 -115 70 0 70 0 0 -160 0 -160 115
0 115 0 0 -105 0 -105 60 0 60 0 0 -125 0 -125 205 0 205 0 0 -110 0 -110 90
0 90 0 0 -95 0 -95 235 0 235 0 0 -160 0 -160 85 0 85 0 0 -100 0 -100 75 0
75 0 0 -135 0 -135 170 0 170 0 0 -95 0 -95 105 0 105 0 0 -140 0 -140 60 0
60 0 0 -110 0 -110 175 0 175 0 0 -100 0 -100 95 0 95 0 0 -145 0 -145 110 0
109 0 3 -97 c2 -68 7 -98 15 -98 7 0 18 -6 25 -14 11 -12 10 -12 -2 -5 -26 15
-40 13 -40 -7 0 -11 7 -19 16 -19 9 0 12 5 8 13 -6 10 -4 10 7 0 9 -9 53 -13
146 -13 l133 0 0 -30 c0 -29 1 -30 50 -30 l50 0 0 -165 0 -165 170 0 170 0 0
-80 0 -80 135 0 135 0 0 -160 0 -160 115 0 115 0 0 -120 0 -120 90 0 90 0 0
-105 0 -105 120 0 120 0 0 -136 c0 -123 2 -135 18 -133 9 1 97 1 195 0 l177
-1 0 -100 c0 -93 1 -100 20 -100 18 0 20 -7 20 -55 l0 -55 200 0 200 0 0 55 0
55 135 0 135 0 0 100 0 100 90 0 90 0 0 135 0 135 85 0 85 0 0 105 0 105 145
0 145 0 0 120 0 120 160 0 160 0 0 160 0 160 30 0 30 0 0 80 0 80 175 0 175 0
0 165 0 165 175 0 175 0 0 30 0 29 108 3 c99 3 107 4 107 23 0 13 7 20 20 20
16 0 21 8 23 43 2 33 0 42 -12 42 -12 0 -16 10 -15 43 0 34 2 38 10 22 l9 -20
-3 20 c-2 11 -10 19 -19 19 -10 -1 -14 4 -11 13 4 10 9 11 16 4 14 -14 30 -14
22 -1 -4 6 18 10 59 10 l66 0 0 145 0 145 135 0 135 0 0 100 0 100 145 0 145
0 0 110 0 110 100 0 100 0 0 140 0 140 60 0 60 0 0 95 0 95 235 0 235 0 0 135
0 135 75 0 75 0 0 100 0 100 110 0 110 0 0 160 0 160 120 0 120 0 0 95 0 95
140 0 c137 0 141 1 149 23 5 14 4 25 -3 29 -7 5 -5 8 6 8 9 0 19 -6 21 -12 3
-7 6 11 6 41 1 36 -4 60 -14 71 -11 12 -13 24 -7 41 5 13 12 23 16 22 3 -2 33
-3 66 -3 l60 0 0 125 0 125 75 0 75 0 0 505 0 505 -75 0 -75 0 0 274 0 275
-22 3 c-20 3 -23 10 -26 51 -3 46 -4 47 -38 47 l-34 0 0 125 c0 134 1 131 -51
126 -9 -1 -19 6 -23 15 -8 22 2 33 14 14 6 -8 10 -10 10 -5 -1 6 -7 19 -15 29
-11 14 -15 47 -15 114 l0 94 25 -6 c19 -5 23 -3 19 8 -5 12 -48 15 -265 16
l-259 1 0 -141 0 -140 -70 0 -70 0 0 -125 0 -125 -40 0 -39 0 -3 -72 c-2 -56
-6 -73 -18 -74 -8 -1 -88 -2 -177 -3 l-163 -1 0 -165 0 -165 -130 0 -130 0 0
-85 0 -85 -104 0 c-95 0 -137 -10 -104 -23 7 -3 3 -6 -9 -6 -13 -1 -23 4 -23
9 0 6 -8 10 -17 10 -14 0 -15 -2 -4 -9 11 -7 9 -10 -8 -16 -11 -3 -21 -11 -21
-18 0 -8 3 -8 12 1 7 7 28 12 47 12 40 0 36 -10 -5 -14 -26 -3 -29 -7 -32 -45
-3 -37 -6 -42 -25 -39 -18 3 -22 -2 -22 -27 0 -25 4 -30 23 -29 19 1 23 -3 20
-25 l-3 -26 -107 -3 -108 -3 0 -114 0 -115 -60 0 -60 0 0 -160 0 -160 -135 0
-135 0 0 -105 0 -105 -85 0 -85 0 0 -125 0 -125 -105 0 -105 0 -1 -97 c-1 -54
-1 -104 0 -110 2 -10 -60 -13 -279 -13 l-280 0 0 -95 0 -95 -70 0 -70 0 0
-160 0 -160 -140 0 -140 0 0 -100 0 -100 -50 0 -50 0 0 -135 0 -135 -145 0
-145 0 0 -95 0 -95 -105 0 -105 0 0 -140 0 -140 -70 0 -70 0 0 -110 0 -110
-355 0 -355 0 0 110 0 110 -125 0 -125 0 0 140 0 140 -190 0 -190 0 0 95 0 95
-90 0 -90 0 0 135 c0 83 -4 135 -10 135 -6 0 -10 40 -10 100 l0 100 -240 0
-240 0 0 160 0 160 -130 0 -130 0 0 95 0 95 -90 0 -90 0 0 110 0 110 -85 0
-85 0 0 125 0 125 -181 0 -180 0 3 105 3 105 -97 0 -98 0 0 160 0 160 -115 0
-115 0 0 115 0 115 -102 1 c-57 1 -110 2 -118 3 -11 1 -16 17 -18 70 -3 63 -2
67 13 52 22 -22 34 -20 45 7 7 17 9 18 9 5 1 -27 16 -21 17 6 1 18 -4 26 -19
28 -21 3 -37 28 -17 28 6 0 9 -4 6 -8 -3 -5 0 -9 7 -9 7 0 13 15 14 34 1 18
-2 33 -7 33 -16 0 -40 -31 -40 -51 0 -18 -2 -19 -15 -5 -20 19 -19 33 3 45 12
8 -17 10 -105 11 l-123 0 0 85 0 85 -115 0 -115 0 0 165 0 164 -87 3 c-61 2
-88 7 -89 16 -1 6 -2 16 -3 21 -2 13 -47 19 -65 9 -9 -5 -16 -6 -15 -1 1 4 1
29 0 56 l-1 47 -85 0 -85 0 0 125 0 125 -135 0 -135 0 0 140 0 140 -190 0
-190 0 0 105 0 105 -265 0 -265 0 -2 -242z m10135 -615 c-7 -2 -19 -2 -25 0
-7 3 -2 5 12 5 14 0 19 -2 13 -5z m-8016 -562 c-1 -11 -6 -17 -14 -14 -10 4
-11 9 -2 19 15 19 18 18 16 -5z m6327 -126 c-4 -8 -2 -15 4 -15 5 0 12 7 16
15 4 10 19 15 49 15 41 0 43 -1 41 -27 -1 -16 -2 -38 -3 -50 -1 -15 -7 -23
-18 -22 -11 0 -13 3 -5 6 6 2 12 14 12 24 0 11 -4 17 -10 14 -6 -4 -11 6 -11
22 -1 23 -2 24 -6 6 -4 -21 -8 -22 -51 -16 -57 7 -58 8 -41 27 18 20 30 20 23
1z m63 -81 c-3 -3 -12 -4 -19 -1 -8 3 -5 6 6 6 11 1 17 -2 13 -5z m1545 -1141
c-4 -20 -35 -37 -46 -25 -3 3 -6 22 -6 43 0 31 4 38 23 41 24 3 36 -20 29 -59z
m-6982 -2293 c0 -17 -7 -20 -39 -20 -40 0 -57 11 -46 30 3 6 24 10 46 10 32 0
39 -3 39 -20z"/>
<path d="M19500 7950 c0 -5 7 -10 16 -10 8 0 12 5 9 10 -3 6 -10 10 -16 10 -5
0 -9 -4 -9 -10z"/>
<path d="M9275 7914 c-17 -17 -15 -41 4 -36 6 1 11 -2 11 -8 0 -5 -4 -10 -10
-10 -5 0 -10 -4 -10 -10 0 -6 10 -5 25 2 19 9 25 19 25 45 0 37 -18 44 -45 17z"/>
<path d="M9353 7875 c0 -8 4 -12 9 -9 5 3 6 10 3 15 -9 13 -12 11 -12 -6z"/>
<path d="M7681 7817 c0 -10 -5 -15 -11 -12 -5 3 -10 -3 -10 -15 0 -12 -4 -19
-9 -15 -5 3 -12 1 -16 -4 -7 -12 35 -5 48 8 5 5 7 19 4 32 -3 16 -5 18 -6 6z"/>
<path d="M19532 7755 c0 -16 2 -22 5 -12 2 9 2 23 0 30 -3 6 -5 -1 -5 -18z"/>
<path d="M7664 7745 c-4 -8 -13 -15 -21 -15 -8 0 -11 -5 -8 -10 4 -6 11 -8 16
-5 11 8 32 45 24 45 -3 0 -8 -7 -11 -15z"/>
<path d="M7708 7723 c7 -3 16 -2 19 1 4 3 -2 6 -13 5 -11 0 -14 -3 -6 -6z"/>
<path d="M10965 7379 c-4 -6 -5 -12 -2 -15 2 -3 7 2 10 11 7 17 1 20 -8 4z"/>
<path d="M11643 6795 c0 -8 4 -12 9 -9 5 3 6 10 3 15 -9 13 -12 11 -12 -6z"/>
<path d="M17855 6800 c-3 -6 1 -7 9 -4 18 7 21 14 7 14 -6 0 -13 -4 -16 -10z"/>
<path d="M11636 6665 c-9 -26 -7 -32 5 -12 6 10 9 21 6 23 -2 3 -7 -2 -11 -11z"/>
<path d="M11652 6610 c0 -19 2 -27 5 -17 2 9 2 25 0 35 -3 9 -5 1 -5 -18z"/>
<path d="M19546 5345 c-3 -8 -1 -15 4 -15 13 0 22 18 11 24 -5 3 -11 -1 -15
-9z"/>
</g>
</svg>
