<?xml version="1.0" standalone="no"?>
<!DOCTYPE svg PUBLIC "-//W3C//DTD SVG 20010904//EN"
 "http://www.w3.org/TR/2001/REC-SVG-20010904/DTD/svg10.dtd">
<svg version="1.0" xmlns="http://www.w3.org/2000/svg"
 width="2953.000000pt" height="2841.000000pt" viewBox="0 0 2953.000000 2841.000000"
 preserveAspectRatio="xMidYMid meet">

<g transform="translate(0.000000,2841.000000) scale(0.100000,-0.100000)"
fill="#000000" stroke="none">
<path d="M6320 27435 l0 -95 -450 0 -450 0 0 -130 0 -130 -295 0 -295 0 0 -95
0 -95 -175 0 -175 0 0 -145 0 -145 -235 0 -235 0 0 -165 0 -165 -205 0 -205 0
0 -70 0 -70 -160 0 -160 0 0 -145 0 -145 -190 0 -190 0 0 -35 0 -35 -60 0 -60
0 0 -135 0 -135 -40 0 -40 0 0 -125 0 -125 -250 0 -250 0 0 -100 0 -100 -115
0 -115 0 0 -120 0 -120 -60 0 -60 0 0 -145 0 -145 -45 0 -45 0 0 -100 0 -100
-120 0 -120 0 0 -230 0 -230 -85 0 -85 0 0 -175 0 -175 -115 0 -115 0 0 -195
0 -195 -60 0 -60 0 0 -230 0 -230 -55 0 -55 0 0 -260 0 -260 -90 0 -90 0 -1
-582 c-1 -321 -1 -587 0 -592 6 -34 -41 -60 -53 -29 -3 7 0 13 7 13 8 0 6 4
-3 10 -13 9 -13 10 0 10 8 0 2 7 -13 15 -16 8 -33 14 -40 12 -6 -1 -14 12 -18
28 -6 24 -7 21 -6 -17 2 -37 -1 -48 -13 -49 -10 0 -11 -2 -2 -6 6 -2 12 -11
12 -19 0 -18 -66 -19 -73 -1 -3 6 -6 -329 -6 -745 l-1 -758 105 0 105 0 2
-652 3 -653 88 -3 87 -3 1 -197 c0 -108 5 -206 10 -217 8 -17 8 -15 4 8 -5 27
8 38 19 15 5 -10 7 -10 12 0 3 6 19 12 35 12 l29 0 0 -370 0 -370 60 0 60 0 0
-270 0 -270 88 0 87 0 3 -48 c3 -44 2 -46 -12 -27 -20 26 -20 17 -1 -28 8 -20
15 -48 15 -62 0 -15 4 -24 9 -20 12 7 41 -22 41 -41 0 -8 -4 -12 -10 -9 -5 3
-10 1 -10 -4 0 -6 5 -11 10 -11 6 0 10 -53 10 -140 l0 -140 86 0 85 0 -1 -92
c-1 -51 -1 -153 -1 -225 l1 -133 120 0 120 0 0 -195 0 -195 45 0 45 0 0 -135
0 -135 60 0 60 0 0 -105 0 -105 115 0 115 0 0 -255 0 -255 85 0 85 0 1 -162
c1 -90 5 -174 9 -188 8 -24 8 -24 9 -2 1 15 7 22 21 22 16 0 20 -7 20 -31 0
-27 -3 -30 -27 -27 -26 3 -28 0 -31 -34 -3 -35 -2 -37 30 -40 31 -3 33 -5 33
-41 l0 -37 64 0 c44 0 62 3 55 10 -6 6 -8 25 -6 43 4 27 6 29 13 12 7 -19 8
-19 8 3 1 26 18 30 24 5 3 -15 6 -14 15 7 11 25 11 25 13 -7 1 -18 2 -39 3
-45 1 -7 -12 -16 -29 -20 -19 -4 -5 -6 38 -5 l67 2 0 -112 0 -113 40 0 40 0 0
-105 0 -105 60 0 60 0 0 -130 0 -130 100 0 100 0 0 -110 0 -110 90 0 90 0 0
-90 0 -90 100 0 100 0 0 -140 0 -140 60 0 60 0 0 -225 0 -225 105 0 105 0 0
-145 0 -145 100 0 100 0 0 -95 0 -95 100 0 100 0 0 -160 0 -160 135 0 135 0 0
-90 0 -90 55 0 55 0 0 -135 0 -135 120 0 120 0 0 -135 0 -135 114 0 114 0 1
-74 1 -75 -33 6 c-24 4 -36 1 -40 -9 -10 -27 8 -38 71 -44 60 -7 62 -8 62 -35
0 -15 5 -31 10 -34 6 -3 10 0 10 7 0 9 3 9 10 -2 8 -12 10 -8 11 15 1 29 1 30
9 5 4 -14 8 -53 9 -87 l1 -63 120 0 120 0 0 -105 0 -105 25 0 25 0 0 -135 0
-135 120 0 120 0 0 -100 0 -100 60 0 60 0 0 -95 0 -95 85 0 85 0 0 -165 0
-165 160 0 160 0 0 -65 0 -65 40 0 40 0 0 -150 0 -150 135 0 135 0 0 -130 0
-130 90 0 90 0 0 -95 0 -95 130 0 130 0 0 -145 0 -145 65 0 65 0 0 -105 0
-105 83 0 83 0 -4 -33 -4 -33 41 4 c39 4 41 3 42 -24 1 -16 1 -36 0 -46 -1 -9
3 -19 9 -23 6 -3 11 4 12 17 1 13 3 32 4 43 1 11 2 25 3 30 1 6 10 11 21 11
19 0 20 -7 20 -113 l0 -113 245 0 245 0 0 140 0 140 25 0 25 0 0 250 0 250 50
0 50 0 0 95 0 95 145 0 145 0 0 135 c0 129 1 135 20 135 25 0 35 23 21 47 -10
17 -11 16 -17 -4 -3 -13 -10 -23 -16 -23 -5 0 -4 9 2 20 7 14 7 20 0 20 -6 0
-10 43 -10 116 l0 115 100 -3 100 -3 0 68 0 67 105 0 105 0 0 165 0 165 25 0
c25 0 25 0 25 95 l0 95 45 0 45 0 0 100 0 100 115 0 115 0 0 240 0 240 60 0
60 0 0 95 0 95 165 0 165 0 0 100 0 100 40 0 40 0 0 135 0 135 90 0 90 0 0
135 0 135 100 0 100 0 0 250 0 250 135 0 135 0 0 95 0 95 85 0 85 0 0 145 0
145 75 0 75 0 2 223 c3 189 5 222 18 223 8 1 32 2 53 3 l37 1 0 140 0 140 115
0 115 0 0 90 0 90 105 0 105 0 0 110 0 110 60 0 60 0 0 235 0 235 60 0 60 0 0
110 0 110 210 0 210 0 0 -110 0 -110 110 0 110 0 0 -105 0 -105 70 0 70 0 0
-130 0 -130 85 0 85 0 0 -200 0 -200 50 0 50 0 0 -140 0 -140 40 0 40 0 0
-225 0 -225 130 0 130 0 0 -145 0 -145 135 0 135 0 0 -95 0 -95 105 0 105 0 0
-160 c0 -100 4 -160 10 -160 6 0 10 -37 10 -90 l0 -90 90 0 90 0 0 -135 0
-135 120 0 120 0 0 -135 0 -135 195 0 195 0 0 -100 0 -100 355 0 355 0 0 100
0 100 90 0 90 0 0 135 0 135 85 0 85 0 0 135 0 135 145 0 145 0 0 250 0 250
50 0 50 0 0 240 0 240 110 0 110 0 0 365 0 365 30 0 30 0 0 200 0 200 70 0 70
0 0 235 0 235 105 0 105 0 0 255 0 255 175 0 175 0 0 260 0 260 105 0 105 0 0
225 0 225 25 0 25 0 0 330 0 330 60 0 60 0 0 225 0 225 25 0 c23 0 25 -4 25
-40 0 -33 3 -40 20 -40 17 0 20 7 20 40 l0 40 150 0 150 0 0 -95 0 -95 85 0
85 0 0 -225 0 -225 100 0 100 0 0 -340 0 -340 60 0 60 0 0 -255 0 -255 130 0
130 0 0 -270 0 -270 105 0 105 0 0 -215 0 -215 75 0 75 0 0 -240 0 -240 40 0
40 0 0 -230 0 -230 70 0 70 0 0 -225 0 -225 120 0 120 0 2 -262 3 -263 48 -3
c45 -3 47 -2 47 22 0 23 4 26 33 26 35 0 77 -23 64 -36 -4 -4 -7 -2 -7 4 0 7
-4 12 -10 12 -5 0 -10 -6 -10 -14 0 -9 11 -13 35 -11 l35 1 -3 -130 c-1 -72
-1 -213 1 -313 2 -182 2 -183 24 -180 12 2 26 11 32 19 14 23 -5 113 -23 113
-8 0 -15 8 -17 18 -2 17 -1 17 15 3 23 -21 37 -21 20 0 -12 14 -11 16 6 13 23
-5 24 -26 25 -491 l0 -248 60 0 60 0 0 -200 0 -200 75 0 75 0 0 -235 0 -235
115 0 115 0 0 -260 0 -260 130 0 130 0 0 -215 0 -215 85 0 85 0 0 -225 0 -225
105 0 105 0 0 -250 0 -250 25 0 25 0 0 -340 0 -340 255 0 255 0 0 75 0 75 145
0 145 0 0 125 0 125 25 0 25 0 0 140 0 140 195 0 195 0 0 105 0 105 85 0 85 0
0 145 0 145 105 0 105 0 0 95 0 95 40 0 40 0 0 130 0 130 205 0 205 0 0 150 0
150 100 0 100 0 0 65 0 65 90 0 90 0 0 165 0 165 30 0 30 0 0 95 0 95 85 0 85
0 0 100 0 100 150 0 150 0 0 135 0 135 70 0 70 0 0 105 0 105 70 0 70 0 0 95
0 95 35 0 c34 0 35 -1 35 -38 l0 -38 39 4 c36 4 40 7 43 35 l3 32 84 5 c55 3
86 9 89 18 2 6 -5 12 -15 13 -17 0 -17 1 0 8 10 4 18 10 18 14 -1 4 -1 39 -1
77 l0 70 115 0 115 0 0 135 0 135 70 0 70 0 0 135 0 135 120 0 120 0 0 90 0
90 100 0 100 0 0 160 0 160 60 0 60 0 0 95 0 95 60 0 60 0 0 145 0 145 100 0
100 0 0 130 0 130 63 2 c34 0 67 1 74 1 19 -1 23 36 5 47 -16 9 -15 9 1 10 10
0 17 6 16 13 -1 6 -1 35 0 64 l1 52 38 3 c35 3 37 5 37 36 0 28 3 32 27 32 24
0 28 4 28 30 0 25 -4 30 -24 30 -19 0 -25 -6 -28 -27 -3 -23 -9 -29 -40 -34
l-38 -6 0 37 c0 35 1 36 34 32 32 -4 34 -2 40 32 6 30 11 36 31 36 l25 0 0
130 0 130 165 0 165 0 0 110 0 110 40 0 40 0 0 130 0 130 105 0 105 0 0 105 0
105 60 0 60 0 0 110 c0 119 -1 117 60 111 12 -1 16 9 17 39 l2 40 -40 0 -39 0
0 65 c0 55 3 65 18 65 9 0 24 -4 32 -10 25 -16 30 9 30 178 l0 162 135 0 135
0 0 135 0 135 45 0 45 0 0 225 0 225 130 0 130 0 0 135 0 135 100 0 100 0 0
195 0 195 40 0 40 0 0 159 c0 132 3 160 15 165 8 3 21 3 29 0 8 -3 16 3 19 16
3 13 0 23 -9 27 -9 3 -14 20 -14 44 0 39 0 39 40 39 l40 0 0 -40 0 -40 45 0
45 0 0 170 0 170 100 0 100 0 2 403 3 402 78 3 77 3 0 259 0 260 30 0 c27 0
30 -3 30 -30 l0 -31 68 3 67 3 3 418 2 417 45 0 45 0 0 518 c0 284 4 522 8
528 4 6 25 11 47 12 35 2 41 0 41 -18 0 -11 -5 -20 -11 -20 -5 0 -3 -5 5 -10
8 -6 43 -9 78 -9 l62 2 0 949 0 948 -115 0 -115 0 0 470 0 470 -45 0 -45 0 0
375 0 375 -100 0 -100 0 0 118 0 117 -63 -3 -64 -2 5 30 c4 29 6 30 56 31 28
1 54 1 59 0 12 -2 8 67 -5 71 -7 3 -42 6 -76 7 -59 2 -63 1 -57 -18 3 -10 2
-22 -3 -25 -10 -6 -9 45 1 61 4 7 3 14 -3 18 -6 4 -10 51 -10 111 l0 104 -100
0 -100 0 0 270 0 270 -105 0 -105 0 0 135 0 135 -40 0 -40 0 0 100 0 100 -100
0 -100 0 0 145 0 145 -130 0 -130 0 0 120 0 120 -45 0 -45 0 0 100 0 100 -158
0 c-113 0 -162 4 -171 13 -11 10 -13 10 -7 0 4 -7 2 -13 -3 -13 -7 0 -11 44
-11 125 l0 125 -60 0 -60 0 0 135 0 135 -105 0 -105 0 0 35 0 35 -205 0 -205
0 0 145 0 145 -145 0 -145 0 0 70 0 70 -160 0 -160 0 0 165 0 165 -160 0 -160
0 0 145 0 145 -305 0 -305 0 0 95 0 95 -235 0 -235 0 0 130 0 130 -362 1
c-200 0 -390 1 -423 2 l-60 2 -3 93 -3 92 -1909 0 -1910 0 0 -95 0 -95 -600 0
-600 0 0 95 0 95 -465 0 -465 0 0 -95 0 -95 -105 0 -105 0 0 -130 0 -130 -175
0 -175 0 0 -95 0 -95 -105 0 -105 0 0 -1267 c0 -706 4 -1262 9 -1255 14 23 46
10 49 -21 3 -27 4 -27 78 -27 l74 0 0 -135 0 -135 175 0 175 0 0 -95 0 -95
148 -1 c81 -1 152 -1 157 0 6 0 11 -11 10 -27 0 -20 5 -27 20 -28 11 -1 26 -2
33 -3 19 -2 17 -190 -2 -197 -29 -11 -51 -11 -58 0 -4 6 -8 -13 -8 -42 l0 -53
285 3 c306 3 307 3 297 54 -4 21 -1 24 26 24 l31 0 0 100 c0 101 -4 116 -29
100 -21 -13 -21 -122 0 -132 8 -4 -9 -7 -37 -7 -52 -1 -53 -2 -53 -30 0 -17
-4 -33 -10 -36 -5 -3 -10 -1 -10 6 0 8 -4 8 -15 -1 -13 -11 -15 -7 -15 28 0
35 3 39 19 35 21 -5 28 16 33 102 3 39 4 40 40 39 36 -1 38 0 35 30 l-2 31
183 3 182 2 0 95 0 95 130 0 130 0 0 135 0 135 105 0 105 0 0 245 0 245 75 0
75 0 0 220 0 220 110 0 110 0 0 125 0 125 423 1 c232 1 428 1 435 0 6 -1 12 5
12 13 0 9 -6 14 -12 12 -7 -1 -10 -1 -5 1 11 7 8 31 -5 35 -6 2 -13 31 -16 66
l-4 62 46 0 46 0 0 -40 0 -40 70 0 70 0 0 40 0 40 -70 0 -70 0 0 40 0 40 1225
0 1225 0 0 -135 0 -135 435 0 435 0 0 -125 0 -125 265 0 265 0 0 -100 0 -100
245 0 245 0 0 -120 0 -120 175 0 175 0 0 -145 0 -145 190 0 190 0 0 -100 0
-100 121 0 120 0 -3 -37 c-2 -29 -7 -38 -20 -37 -16 2 -18 -8 -17 -80 1 -44 4
-72 7 -61 12 36 31 28 30 -12 -1 -21 -3 -32 -6 -25 -2 6 -11 12 -20 12 -14 0
-14 -2 -3 -9 11 -7 11 -9 0 -14 -8 -2 4 -4 26 -4 22 0 77 -1 123 -2 l82 -1 0
-95 0 -95 100 0 100 0 0 -175 0 -175 80 0 80 0 0 -100 0 -100 65 0 65 0 0 -95
0 -95 165 0 165 0 0 -115 0 -115 40 0 40 0 0 -265 0 -265 105 0 105 0 0 -110
0 -110 60 0 60 0 0 -405 0 -405 40 0 40 0 0 -1275 0 -1275 -40 0 -40 0 0 -330
0 -330 -60 0 -60 0 0 -190 0 -190 -105 0 -105 0 -1 -287 c-2 -437 -2 -446 -17
-451 -11 -3 -13 12 -10 71 2 48 -1 73 -7 69 -5 -4 -17 -7 -25 -7 -13 0 -15
-35 -18 -240 l-2 -240 -165 3 -165 3 0 -236 0 -235 -65 0 -65 0 0 -225 0 -225
-80 0 -80 0 0 -130 0 -130 -100 0 -100 0 0 -195 0 -195 -60 0 -60 0 0 -135 0
-135 -60 0 -60 0 0 -105 0 -105 -100 0 -100 0 0 -255 0 -255 -120 0 -120 0 0
-125 0 -125 -70 0 -70 0 0 -145 0 -145 -115 0 -115 0 0 -110 0 -110 -60 0 -60
0 0 -105 0 -105 -105 0 -105 0 0 -130 0 -130 -70 0 -70 0 0 -110 0 -110 -70 0
-70 0 0 -90 0 -90 -150 0 -150 0 0 -140 0 -140 -85 0 -85 0 0 -95 0 -95 -30 0
-30 0 0 -130 0 -130 -90 0 -90 0 0 -145 0 -145 -100 0 -100 0 0 -95 0 -95
-100 0 -100 0 0 -160 0 -160 -105 0 -105 0 0 -90 0 -90 -40 0 -40 0 0 -135 0
-135 -105 0 -105 0 0 -135 0 -135 -160 0 -160 0 0 -30 c0 -20 5 -30 15 -30 11
0 15 -11 15 -35 0 -22 -6 -38 -15 -41 -9 -4 -15 -19 -15 -35 l0 -29 -120 0
-120 0 0 235 0 235 -25 0 -25 0 0 385 0 385 -145 0 -145 0 0 240 0 240 -75 0
-75 0 0 225 0 225 -85 0 -85 0 0 230 0 230 -95 0 -95 0 0 240 0 240 -25 0 -25
0 0 215 0 215 -105 0 -105 0 0 270 0 270 -85 0 -85 0 0 360 0 360 -130 0 -130
0 0 235 0 235 -115 0 -115 0 0 225 0 225 -75 0 -75 0 0 225 0 225 -60 0 -60 0
0 235 0 235 -40 0 -40 0 0 265 0 264 -117 3 -118 3 -3 93 c-2 62 1 92 8 92 6
0 9 -3 7 -7 -3 -5 15 -6 39 -4 l44 3 0 45 0 45 -50 -4 -50 -3 0 238 0 237
-120 0 -120 0 0 185 0 185 -70 0 -70 0 0 240 0 240 -40 0 -40 0 0 260 0 260
-75 0 -75 0 0 240 0 240 -105 0 -105 0 0 130 0 130 -130 0 -130 0 0 95 0 95
-60 0 -60 0 0 125 0 125 -449 0 c-350 0 -450 -3 -454 -12 -4 -10 -6 -10 -6 0
-1 6 -4 12 -8 12 -5 0 -8 -40 -8 -90 0 -54 4 -89 10 -89 29 3 35 -3 35 -36 l0
-35 -130 0 -130 0 0 -95 0 -95 -175 0 -175 0 0 -305 0 -305 -105 0 -105 0 -1
-227 c-1 -126 -5 -241 -9 -258 l-8 -30 -1 28 c-1 26 -2 27 -61 27 l-60 0 0
-79 c0 -77 1 -79 23 -75 l22 5 -22 -10 c-22 -10 -23 -14 -23 -166 l0 -155 -30
0 c-30 0 -30 0 -30 -60 l0 -59 30 6 c29 5 30 5 30 -36 0 -39 -2 -41 -30 -41
l-30 0 0 -185 0 -185 -110 0 -110 0 0 -235 0 -235 -50 0 -50 0 0 -230 0 -230
-145 0 -145 0 0 -270 0 -270 -85 0 -85 0 0 -265 c0 -258 -1 -265 -20 -265 -19
0 -20 -7 -20 -227 l0 -228 -70 3 -70 4 0 -331 0 -331 -135 0 -135 0 0 -225 0
-225 -140 0 -140 0 0 -260 0 -260 -60 0 -60 0 0 -139 c0 -124 2 -140 18 -144
9 -3 0 -5 -20 -6 l-38 -1 0 105 0 105 -40 0 c-29 0 -40 -4 -40 -15 0 -9 -6
-12 -15 -9 -8 4 -15 1 -15 -5 0 -6 5 -11 10 -11 6 0 10 -4 10 -8 0 -5 -7 -9
-15 -9 -10 0 -15 10 -15 29 0 15 3 27 8 27 25 -4 32 4 32 41 0 36 -2 40 -25
40 -23 0 -25 -4 -27 -42 l-1 -43 -7 45 -7 45 -1 -42 c-2 -36 -5 -43 -22 -43
-17 0 -20 7 -20 40 0 38 -2 40 -30 40 l-30 0 0 125 0 125 -70 0 -70 0 0 135 0
135 -120 0 -120 0 0 120 0 120 -90 0 -90 0 0 240 c0 153 -4 240 -10 240 -6 0
-10 40 -10 100 l0 100 -105 0 -105 0 0 95 0 95 -135 0 -135 0 0 130 0 130
-130 0 -130 0 0 225 0 225 -40 0 -40 0 0 135 0 135 -50 0 -50 0 0 100 0 100
-262 2 -263 3 0 168 0 167 -212 0 -213 0 -2 -167 -3 -168 -222 -3 -223 -2 0
-100 0 -100 -115 0 -115 0 0 -135 0 -135 -55 0 -55 0 0 -225 0 -225 -75 0 -75
0 0 -130 0 -130 -85 0 -85 0 0 -95 0 -95 -135 0 -135 0 -2 -192 c-3 -192 -3
-193 -25 -196 -20 -3 -23 -10 -23 -43 l0 -40 -72 2 -73 2 -3 -106 -3 -107 -89
0 -90 0 0 -120 0 -120 -40 0 -40 0 0 -135 0 -135 -165 0 -165 0 0 -165 c0
-158 -1 -165 -20 -165 -17 0 -20 7 -22 43 l-1 42 -7 -45 -7 -45 -1 43 c-2 40
-4 42 -32 42 l-30 0 0 -255 0 -255 -115 0 -115 0 0 -105 0 -105 -45 0 -45 0 0
-130 0 -130 -25 0 -25 0 0 -110 0 -110 -105 0 -105 0 0 -230 0 -230 -100 0
-100 0 0 -95 0 -95 -145 0 -145 0 0 -130 0 -130 -50 0 -50 0 0 -240 0 -240
-25 0 -25 0 0 -160 0 -160 -120 0 -120 0 0 -90 0 -90 -125 0 -125 0 0 -135 0
-135 -75 0 -75 0 0 -135 0 -135 -145 0 -145 0 0 135 0 135 -130 0 -130 0 0
135 0 135 -90 0 -90 0 0 90 0 90 -65 0 -65 0 0 160 0 160 -70 0 -70 0 0 95 0
95 -40 0 -40 0 0 145 0 145 -160 0 -160 0 0 130 0 130 -85 0 -85 0 0 95 0 95
-60 0 -60 0 0 140 0 140 -120 0 -120 0 0 90 c0 89 0 90 -25 90 l-25 0 0 110 0
110 -120 0 -120 0 0 130 0 130 -60 0 -60 0 0 105 0 105 -115 0 -115 0 0 110 0
110 -90 0 -90 0 0 145 0 145 -30 0 -30 0 0 128 0 129 -55 -5 -55 -4 0 71 c0
41 4 71 10 71 6 0 10 11 10 25 0 14 -4 25 -10 25 -6 0 -10 60 -10 160 l0 160
-135 0 -135 0 0 105 0 105 -100 0 -100 0 0 135 0 135 -100 0 -100 0 0 100 0
100 -105 0 -105 0 0 225 0 225 -60 0 -60 0 0 225 0 225 -100 0 -100 0 0 235 0
235 -90 0 -90 0 0 170 0 169 -97 3 -98 3 -3 228 -2 227 -60 0 -60 0 0 330 0
330 -40 0 -40 0 0 330 0 330 -165 0 -165 0 0 1432 c0 1253 2 1429 15 1412 14
-18 14 -18 8 4 l-5 22 156 0 156 0 0 245 0 245 40 0 40 0 0 110 0 110 60 0 60
0 0 265 0 265 100 0 100 0 0 115 0 115 90 0 90 0 0 95 0 95 100 0 100 0 0 100
0 100 60 0 60 0 0 175 0 175 105 0 105 0 0 95 0 95 200 0 200 0 0 135 0 135
135 0 135 0 0 100 0 100 85 0 85 0 0 145 0 145 205 0 205 0 0 120 0 120 206 0
205 0 -3 100 -3 100 268 0 267 0 0 125 0 125 425 0 425 0 0 135 0 135 1125 0
1125 0 0 -40 0 -40 64 0 65 0 4 -42 4 -43 1 43 c1 23 7 42 13 42 7 0 9 -29 7
-85 -2 -47 -6 -85 -10 -85 -5 0 -8 12 -8 28 0 15 -4 22 -8 16 -11 -17 -70 3
-77 26 -4 14 -15 20 -36 20 -27 0 -29 2 -29 40 0 38 -2 40 -31 40 l-31 0 4
-92 3 -93 100 -2 c55 -1 310 -2 568 -3 l467 0 0 -125 0 -125 220 0 220 0 0
-100 0 -100 75 0 75 0 0 -365 0 -365 55 0 55 0 0 -135 0 -135 115 0 115 0 0
-95 0 -95 168 0 167 0 -3 -161 c-3 -132 -1 -160 10 -153 10 6 11 5 1 -8 -18
-21 -6 -28 41 -27 l41 2 -40 7 c-37 7 -37 7 -9 9 27 1 31 4 30 29 -1 21 4 27
22 28 19 1 22 -4 22 -33 0 -20 -4 -32 -10 -28 -5 3 -10 1 -10 -4 0 -8 75 -11
233 -10 127 0 226 3 220 6 -9 3 -13 32 -13 93 l0 89 63 3 c52 3 62 6 61 21 -1
9 -2 31 -3 47 -1 25 -5 30 -26 30 -21 0 -25 5 -25 31 l0 30 68 -1 c37 -1 140
-1 230 -1 l162 1 0 95 0 95 50 0 50 0 0 135 0 135 40 0 40 0 0 1285 0 1285
-40 0 -40 0 0 95 0 95 -50 0 -50 0 0 130 0 130 -152 0 c-103 0 -148 4 -138 10
13 8 12 10 -2 10 -13 0 -18 8 -18 30 0 16 3 29 8 29 4 -1 35 -1 70 0 62 1 62
1 60 29 -2 26 -4 27 -45 23 -42 -3 -43 -2 -43 28 l0 31 -405 0 -404 0 -3 -92
-3 -93 -727 -3 -728 -2 0 95 0 95 -1825 0 -1825 0 0 -95z m2830 -1890 c0 -8 5
-15 10 -15 6 0 10 -4 10 -10 0 -5 -22 -10 -50 -10 -27 0 -50 5 -50 10 0 6 5
10 10 10 6 0 10 7 10 15 0 10 10 15 30 15 20 0 30 -5 30 -15z m-7480 -1315 c0
-5 -4 -10 -10 -10 -5 0 -10 5 -10 10 0 6 5 10 10 10 6 0 10 -4 10 -10z m23374
-10 c-10 -4 -21 -6 -24 -3 -8 7 24 22 34 16 5 -4 1 -10 -10 -13z m-23404 -4
c0 -3 -4 -8 -10 -11 -5 -3 -10 -1 -10 4 0 6 5 11 10 11 6 0 10 -2 10 -4z
m23410 -26 c-19 -13 -30 -13 -30 0 0 6 10 10 23 10 18 0 19 -2 7 -10z m0 -80
c0 -5 -2 -10 -4 -10 -3 0 -8 5 -11 10 -3 6 -1 10 4 10 6 0 11 -4 11 -10z
m-13552 -286 c-3 -14 -5 -12 -10 9 -3 19 -2 25 4 19 6 -6 8 -18 6 -28z m5542
6 c0 -5 -4 -10 -9 -10 -6 0 -13 5 -16 10 -3 6 1 10 9 10 9 0 16 -4 16 -10z
m-5496 -56 c3 -9 6 -27 6 -40 0 -20 -5 -24 -27 -24 -22 0 -25 2 -13 10 13 9
13 12 -2 20 -16 10 -16 12 0 30 20 24 28 25 36 4z m-61 -201 c-7 -2 -21 -2
-30 0 -10 3 -4 5 12 5 17 0 24 -2 18 -5z m6051 -13 c7 0 13 -7 13 -15 0 -18
-13 -20 -20 -2 -4 9 -8 8 -17 -3 -10 -13 -11 -12 -6 3 3 10 6 24 7 30 0 8 2 8
6 0 2 -7 10 -13 17 -13z m10826 -2520 c0 -5 -4 -10 -10 -10 -5 0 -10 5 -10 10
0 6 5 10 10 10 6 0 10 -4 10 -10z m-11427 -598 c3 7 4 3 4 -9 -1 -12 -5 -19
-9 -17 -4 3 -8 -4 -8 -16 0 -12 5 -18 10 -15 6 4 10 -7 9 -27 -1 -18 -3 -25
-6 -15 -2 9 -9 15 -14 12 -5 -4 -9 9 -9 29 0 19 -3 43 -7 53 -6 15 -4 16 9 5
13 -10 17 -10 21 0z m11540 -1129 c-7 -2 -19 -2 -25 0 -7 3 -2 5 12 5 14 0 19
-2 13 -5z m-12413 -508 c0 -8 -4 -15 -8 -15 -5 0 -9 7 -9 15 0 8 4 15 9 15 4
0 8 -7 8 -15z m-89 -402 c-12 -20 -14 -14 -5 12 4 9 9 14 11 11 3 -2 0 -13 -6
-23z m-14854 -1230 c6 -15 -12 -33 -34 -33 -7 0 -13 10 -13 23 0 27 37 35 47
10z m24950 -90 c-3 -10 -5 -4 -5 12 0 17 2 24 5 18 2 -7 2 -21 0 -30z m-24750
-745 c-3 -7 -5 -2 -5 12 0 14 2 19 5 13 2 -7 2 -19 0 -25z m13781 -954 c3 -33
-11 -45 -44 -39 -11 2 -22 4 -26 4 -10 1 -10 55 -1 65 4 4 21 6 38 4 26 -3 30
-8 33 -34z m-12558 -1573 c0 -22 -4 -43 -10 -46 -6 -4 -10 12 -10 39 0 25 5
46 10 46 6 0 10 -18 10 -39z m11571 -144 c-5 -12 -13 -22 -20 -21 -6 1 -17 2
-24 3 -20 2 -13 44 9 52 27 9 45 -8 35 -34z m-11611 2 c0 -24 -3 -30 -16 -25
-9 3 -20 6 -25 6 -5 0 -9 11 -9 25 0 20 5 25 25 25 21 0 25 -5 25 -31z m35
-48 c3 -5 1 -12 -5 -16 -5 -3 -10 1 -10 9 0 18 6 21 15 7z m6255 -1067 c0 -13
-2 -24 -4 -24 -2 0 -11 -3 -20 -6 -13 -5 -16 1 -16 28 0 19 3 38 7 41 11 12
33 -14 33 -39z m16807 -126 c2 -17 0 -19 -7 -8 -5 8 -6 18 -4 22 8 12 10 10
11 -14z m28 -68 c3 -5 1 -10 -4 -10 -6 0 -11 5 -11 10 0 6 2 10 4 10 3 0 8 -4
11 -10z m-67 -257 c-2 -9 -10 -18 -18 -20 -12 -4 -13 -3 -1 5 7 5 10 15 7 21
-4 6 -2 11 4 11 6 0 10 -8 8 -17z m-3796 -1915 c-5 -5 -22 -8 -38 -5 -28 4
-28 4 4 6 22 1 31 5 26 13 -5 7 -3 8 5 3 8 -5 9 -11 3 -17z m-62 -132 c0 -22
-16 -36 -41 -36 -5 0 -9 14 -9 30 0 25 4 30 25 30 20 0 25 -5 25 -24z m-16673
-13 c-3 -3 -11 -2 -17 2 -9 6 -9 10 1 16 14 8 27 -7 16 -18z"/>
<path d="M1080 17159 c0 -5 5 -7 10 -4 6 3 10 8 10 11 0 2 -4 4 -10 4 -5 0
-10 -5 -10 -11z"/>
<path d="M2481 13674 c0 -11 3 -14 6 -6 3 7 2 16 -1 19 -3 4 -6 -2 -5 -13z"/>
<path d="M8760 12556 c0 -9 5 -16 10 -16 6 0 10 4 10 9 0 6 -4 13 -10 16 -5 3
-10 -1 -10 -9z"/>
<path d="M22862 27505 c0 -16 2 -22 5 -12 2 9 2 23 0 30 -3 6 -5 -1 -5 -18z"/>
<path d="M11321 27444 c0 -11 3 -14 6 -6 3 7 2 16 -1 19 -3 4 -6 -2 -5 -13z"/>
<path d="M19657 25567 c-12 -31 2 -64 26 -63 16 1 21 7 19 21 -6 32 -22 42
-23 15 -1 -18 -3 -16 -8 10 -5 28 -8 31 -14 17z"/>
<path d="M10620 24903 c0 -5 16 -8 35 -9 19 0 35 3 35 8 0 4 -16 8 -35 8 -19
0 -35 -3 -35 -7z"/>
<path d="M16155 24340 c-4 -6 -11 -7 -17 -4 -7 4 -8 2 -4 -5 6 -9 11 -9 22 0
14 11 18 19 10 19 -3 0 -8 -5 -11 -10z"/>
<path d="M12100 23831 c0 -14 9 -23 25 -27 25 -6 29 -16 28 -71 0 -13 4 -23 8
-23 5 0 7 13 5 30 -2 16 2 31 8 34 7 3 7 5 -1 5 -18 1 -16 21 2 21 9 0 15 9
15 23 0 21 -5 24 -45 26 -39 2 -45 -1 -45 -18z"/>
<path d="M12040 23627 c0 -36 18 -44 85 -38 55 6 60 8 63 32 3 26 3 26 -72 28
-74 2 -76 2 -76 -22z"/>
<path d="M12071 23524 c0 -11 3 -14 6 -6 3 7 2 16 -1 19 -3 4 -6 -2 -5 -13z"/>
<path d="M12040 23520 c0 -5 5 -10 11 -10 5 0 7 5 4 10 -3 6 -8 10 -11 10 -2
0 -4 -4 -4 -10z"/>
<path d="M509 21123 c0 -5 -2 -21 -4 -36 -4 -27 -2 -28 23 -22 15 4 27 7 27 8
0 1 6 12 13 24 6 13 12 25 12 28 0 8 -70 6 -71 -2z"/>
<path d="M681 20964 c0 -11 3 -14 6 -6 3 7 2 16 -1 19 -3 4 -6 -2 -5 -13z"/>
<path d="M28290 19321 c0 -10 19 -25 25 -20 1 2 -3 10 -11 17 -8 7 -14 8 -14
3z"/>
<path d="M897 17513 c-4 -3 3 -17 14 -30 21 -21 23 -21 35 -5 7 9 13 24 13 32
0 8 -4 5 -9 -7 -14 -35 -37 -27 -31 10 1 9 -13 9 -22 0z"/>
<path d="M1120 16324 l0 -55 53 3 52 3 3 53 3 52 -55 0 -56 0 0 -56z"/>
<path d="M1277 16263 c-11 -11 -8 -20 7 -20 8 0 12 6 9 14 -6 15 -7 15 -16 6z"/>
<path d="M1273 16215 c0 -8 4 -12 9 -9 5 3 6 10 3 15 -9 13 -12 11 -12 -6z"/>
<path d="M17194 15798 c-6 -21 -7 -21 -20 -3 -13 17 -14 16 -14 -15 0 -18 3
-30 7 -27 3 4 12 2 20 -4 16 -14 15 -14 18 34 2 42 -1 47 -11 15z"/>
<path d="M27550 15800 c-7 -4 -10 -16 -8 -26 2 -13 -5 -20 -27 -25 -19 -5 -5
-7 40 -6 68 2 70 3 73 30 2 17 -2 27 -10 28 -7 0 -23 2 -35 3 -12 1 -27 0 -33
-4z"/>
<path d="M4566 14353 c2 -7 -1 -15 -6 -18 -6 -4 -10 -15 -10 -26 0 -11 4 -18
10 -14 5 3 7 12 3 20 -3 8 -1 15 5 15 6 0 12 -6 15 -12 2 -7 4 -1 3 14 0 14
-4 24 -8 22 -3 -2 -8 -1 -11 3 -2 5 -2 3 -1 -4z"/>
<path d="M4514 14349 c-3 -6 -2 -14 3 -18 6 -3 13 -13 16 -21 3 -9 6 -4 6 12
1 29 -13 45 -25 27z"/>
<path d="M4507 14233 c-12 -11 -7 -53 6 -54 6 -1 26 0 42 0 23 2 27 0 15 -8
-13 -9 -13 -11 3 -11 13 0 17 8 17 38 0 38 -1 39 -38 40 -22 1 -42 -1 -45 -5z"/>
<path d="M4568 14143 c7 -3 16 -2 19 1 4 3 -2 6 -13 5 -11 0 -14 -3 -6 -6z"/>
<path d="M4518 14133 c6 -2 18 -2 25 0 6 3 1 5 -13 5 -14 0 -19 -2 -12 -5z"/>
<path d="M2401 13744 c0 -11 3 -14 6 -6 3 7 2 16 -1 19 -3 4 -6 -2 -5 -13z"/>
<path d="M2568 13583 c6 -2 18 -2 25 0 6 3 1 5 -13 5 -14 0 -19 -2 -12 -5z"/>
<path d="M19120 11106 c0 -20 6 -25 38 -28 44 -6 47 -4 37 19 -5 10 -7 21 -7
26 1 4 -14 7 -33 7 -30 0 -35 -3 -35 -24z"/>
<path d="M19211 11073 c0 -13 -5 -23 -10 -23 -5 0 -8 -18 -7 -39 1 -39 15 -35
17 4 0 13 5 7 12 -15 l11 -35 6 45 c3 25 3 54 1 64 -4 20 -4 20 -11 0 -7 -19
-7 -19 -12 1 -5 18 -6 18 -7 -2z"/>
<path d="M19020 10976 c0 -8 4 -17 9 -20 5 -4 7 3 4 14 -6 23 -13 26 -13 6z"/>
<path d="M19218 10953 c7 -3 16 -2 19 1 4 3 -2 6 -13 5 -11 0 -14 -3 -6 -6z"/>
<path d="M19138 10943 c12 -2 32 -2 45 0 12 2 2 4 -23 4 -25 0 -35 -2 -22 -4z"/>
<path d="M19280 10570 c-9 -6 -10 -10 -3 -10 6 0 15 5 18 10 8 12 4 12 -15 0z"/>
<path d="M19312 10510 c0 -14 2 -19 5 -12 2 6 2 18 0 25 -3 6 -5 1 -5 -13z"/>
<path d="M23991 9854 c0 -11 3 -14 6 -6 3 7 2 16 -1 19 -3 4 -6 -2 -5 -13z"/>
<path d="M24020 9840 c-9 -6 -10 -10 -3 -10 6 0 15 5 18 10 8 12 4 12 -15 0z"/>
<path d="M8530 8370 c0 -39 1 -40 35 -40 34 0 35 1 35 40 0 39 -1 40 -35 40
-34 0 -35 -1 -35 -40z"/>
<path d="M8613 8370 c0 -25 2 -35 4 -22 2 12 2 32 0 45 -2 12 -4 2 -4 -23z"/>
<path d="M9260 7215 l0 -245 -115 0 -115 0 0 -125 0 -125 -45 0 -45 0 0 -75
c0 -73 -1 -75 -25 -75 l-25 0 0 -165 0 -165 -105 0 -105 0 0 -210 0 -210 105
0 105 0 0 -115 0 -115 70 0 70 0 0 -160 0 -160 115 0 115 0 0 -105 0 -105 60
0 60 0 0 -125 0 -125 205 0 205 0 0 -110 0 -110 90 0 90 0 0 -95 0 -95 235 0
235 0 0 -160 0 -160 85 0 85 0 0 -100 0 -100 75 0 75 0 0 -135 0 -135 170 0
170 0 0 -95 0 -95 105 0 105 0 0 -140 0 -140 60 0 60 0 0 -110 0 -110 175 0
175 0 0 -100 0 -100 95 0 95 0 0 -145 0 -145 113 0 112 0 -3 -91 c-3 -64 0
-95 10 -107 9 -11 10 -14 1 -8 -9 5 -13 0 -13 -13 0 -20 5 -21 155 -21 l155 0
0 -30 c0 -29 1 -30 50 -30 l50 0 0 -165 0 -165 170 0 170 0 0 -80 0 -80 135 0
135 0 0 -160 0 -160 115 0 115 0 0 -120 0 -120 90 0 90 0 0 -105 0 -105 120 0
120 0 0 -116 c0 -89 3 -114 13 -108 10 6 10 4 0 -7 -34 -36 -19 -39 182 -39
l195 0 0 -100 c0 -93 1 -100 20 -100 18 0 20 -7 20 -55 l0 -55 200 0 200 0 0
55 0 55 135 0 135 0 0 100 0 100 90 0 90 0 0 135 0 135 85 0 85 0 0 105 0 105
145 0 145 0 0 120 0 120 160 0 160 0 0 160 0 160 30 0 30 0 0 80 0 80 175 0
175 0 0 165 0 165 175 0 175 0 0 30 0 30 105 0 c111 0 112 1 107 51 -1 3 9 5
21 5 19 -1 22 5 25 41 3 36 1 42 -15 39 -16 -3 -18 3 -18 49 0 29 3 51 8 48 4
-2 7 -20 7 -40 0 -46 8 -39 12 10 l2 37 63 0 63 0 0 145 0 145 135 0 135 0 0
100 0 100 145 0 145 0 0 110 0 110 100 0 100 0 0 140 0 140 60 0 60 0 0 95 0
95 235 0 235 0 0 135 0 135 75 0 75 0 0 100 0 100 110 0 110 0 0 160 0 160
120 0 120 0 0 95 0 95 138 0 c94 0 142 4 150 12 9 9 12 9 12 -1 0 -7 4 -10 10
-6 12 8 1 34 -13 31 -7 -1 -9 -1 -4 1 4 3 7 12 7 21 0 15 2 15 10 2 7 -11 10
2 10 43 0 44 -3 57 -15 57 -11 0 -15 -11 -15 -40 0 -36 -2 -40 -25 -40 -22 0
-25 4 -25 40 0 36 3 40 24 40 26 0 39 20 30 45 -5 13 6 15 70 15 l76 0 0 125
0 125 75 0 75 0 0 505 0 505 -75 0 -75 0 0 274 0 275 -22 3 c-20 3 -23 10 -26
51 -3 46 -4 47 -38 47 l-34 0 0 125 c0 102 -3 125 -14 125 -10 0 -16 14 -19
43 l-4 42 -1 -42 c-2 -36 -5 -43 -23 -43 -20 0 -20 4 -17 140 l3 140 -242 0
-243 0 0 -140 0 -140 -70 0 -70 0 0 -125 0 -125 -40 0 -40 0 0 -75 0 -75 -180
0 -180 0 0 -165 0 -165 -130 0 -130 0 0 -85 0 -85 -105 0 c-79 0 -105 -3 -104
-12 5 -38 -2 -48 -31 -48 -28 0 -30 -2 -30 -40 l0 -40 76 0 75 0 -3 -27 c-3
-30 -4 -31 -87 -18 -40 6 -55 13 -58 26 -3 12 -14 19 -29 19 -19 0 -24 -5 -24
-25 0 -20 5 -25 26 -25 22 0 25 -4 22 -27 l-3 -28 -107 -3 -108 -3 0 -114 0
-115 -60 0 -60 0 0 -160 0 -160 -135 0 -135 0 0 -105 0 -105 -85 0 -85 0 0
-125 0 -125 -105 0 -105 0 0 -110 0 -111 -167 1 c-93 0 -219 1 -280 0 l-113 0
0 -95 0 -95 -70 0 -70 0 0 -160 0 -160 -140 0 -140 0 0 -100 0 -100 -50 0 -50
0 0 -135 0 -135 -145 0 -145 0 0 -95 0 -95 -105 0 -105 0 0 -140 0 -140 -70 0
-70 0 0 -110 0 -110 -355 0 -355 0 0 110 0 110 -125 0 -125 0 0 140 0 140
-190 0 -190 0 0 95 0 95 -90 0 -90 0 0 135 c0 83 -4 135 -10 135 -6 0 -10 40
-10 100 l0 100 -240 0 -240 0 0 160 0 160 -130 0 -130 0 0 95 0 95 -90 0 -90
0 0 110 0 110 -85 0 -85 0 0 125 0 125 -180 0 -180 0 0 105 0 105 -95 0 -95 0
0 160 0 160 -115 0 -115 0 0 115 0 115 -101 0 c-77 0 -99 3 -93 13 6 10 4 10
-7 0 -28 -27 -39 -15 -39 42 0 54 0 55 30 55 28 0 30 2 32 43 l1 42 7 -45 7
-45 1 40 c1 23 -3 46 -10 53 -7 7 -8 12 -2 12 5 0 10 9 11 21 2 21 -21 22 -23
1 -5 -41 -7 -44 -13 -17 l-6 30 -123 3 -122 3 0 84 0 85 -115 0 -115 0 0 165
0 165 -84 0 c-80 0 -85 1 -88 23 -2 18 -9 22 -43 23 l-40 0 -3 52 -3 52 -85 0
-84 0 0 125 0 125 -135 0 -135 0 0 140 0 140 -190 0 -190 0 0 105 0 105 -265
0 -265 0 0 -245z m2079 -1182 c-1 -17 -3 -21 -6 -10 -2 9 -9 17 -14 17 -6 0
-7 5 -4 10 12 19 25 10 24 -17z m6445 -184 c-4 -8 1 -9 17 -5 20 6 21 5 6 -4
-19 -12 -41 -4 -32 11 4 5 8 9 11 9 3 0 2 -5 -2 -11z m-19 -19 c3 -6 -1 -7 -9
-4 -18 7 -21 14 -7 14 6 0 13 -4 16 -10z m-5437 -3432 c-2 -19 -10 -24 -45
-26 -40 -3 -43 -1 -43 22 0 24 3 26 46 26 41 0 45 -2 42 -22z"/>
<path d="M19274 7229 c-10 -17 13 -36 27 -22 12 12 4 33 -11 33 -5 0 -12 -5
-16 -11z"/>
<path d="M9034 7164 c-3 -12 -1 -31 5 -41 7 -13 10 -14 11 -3 0 11 3 11 12 2
7 -7 15 -12 19 -12 8 0 18 70 9 71 -43 6 -51 4 -56 -17z m36 -4 c0 -5 -4 -10
-10 -10 -5 0 -10 5 -10 10 0 6 5 10 10 10 6 0 10 -4 10 -10z"/>
<path d="M10728 6697 c24 -11 25 -28 2 -35 -8 -3 -10 0 -5 8 6 9 4 11 -4 5 -9
-5 -10 -10 -2 -18 13 -13 40 8 38 31 0 11 -10 17 -26 18 -26 2 -26 2 -3 -9z"/>
<path d="M17683 6053 c9 -2 15 -9 12 -14 -4 -5 1 -9 11 -9 13 0 14 3 4 15 -7
8 -20 14 -29 14 -13 -1 -13 -2 2 -6z"/>
<path d="M11421 5883 c0 -12 -4 -30 -7 -40 -5 -17 -5 -17 6 0 6 10 9 28 7 40
-4 22 -4 22 -6 0z"/>
</g>
</svg>
