<?xml version="1.0" standalone="no"?>
<!DOCTYPE svg PUBLIC "-//W3C//DTD SVG 20010904//EN"
 "http://www.w3.org/TR/2001/REC-SVG-20010904/DTD/svg10.dtd">
<svg version="1.0" xmlns="http://www.w3.org/2000/svg"
 width="618.000000pt" height="133.000000pt" viewBox="0 0 618.000000 133.000000"
 preserveAspectRatio="xMidYMid meet">

<g transform="translate(0.000000,133.000000) scale(0.100000,-0.100000)"
fill="#000000" stroke="none">
<path d="M333 1225 c-115 -32 -203 -94 -248 -176 -55 -101 -35 -221 61 -366
52 -78 294 -313 323 -313 4 0 21 19 38 43 52 71 184 232 193 235 5 2 27 -21
49 -51 22 -30 52 -64 67 -76 58 -45 86 -23 149 118 27 61 54 110 58 108 5 -1
50 -91 100 -199 51 -109 96 -197 101 -198 15 0 145 110 231 195 141 140 208
263 209 385 1 110 -58 196 -176 256 -89 45 -149 55 -331 52 -197 -3 -200 -4
-195 -89 3 -48 6 -55 32 -68 35 -16 71 -3 88 33 14 32 27 37 118 43 90 7 183
-14 249 -55 174 -108 141 -292 -93 -521 -48 -46 -88 -82 -90 -80 -2 2 -45 94
-95 204 -51 110 -100 208 -108 218 -19 20 -52 22 -75 5 -9 -7 -42 -69 -73
-138 -31 -69 -61 -129 -65 -133 -4 -5 -31 20 -60 56 -52 65 -74 79 -109 70
-10 -2 -66 -65 -125 -139 -59 -74 -111 -134 -115 -134 -5 0 -53 47 -107 103
-122 128 -167 208 -172 307 -4 62 -2 68 30 110 68 89 192 137 328 127 93 -7
109 -13 121 -43 13 -36 50 -49 85 -33 26 13 29 20 32 70 2 42 -1 59 -14 70
-24 20 -341 23 -411 4z"/>
<path d="M3578 999 c-15 -9 -18 -26 -18 -119 0 -61 -2 -110 -4 -110 -3 0 -21
10 -41 21 -28 17 -47 20 -90 17 -109 -9 -168 -90 -169 -233 -1 -133 42 -211
132 -235 49 -13 105 -1 145 30 32 25 35 25 39 -2 2 -19 9 -23 38 -23 l35 0 3
324 c2 337 2 341 -38 341 -8 -1 -23 -5 -32 -11z m-72 -290 c48 -29 54 -46 54
-142 0 -85 0 -85 -35 -116 -44 -38 -75 -47 -112 -29 -46 22 -64 70 -61 165 3
75 5 84 32 112 36 37 74 40 122 10z"/>
<path d="M4527 1003 c-4 -3 -7 -154 -7 -335 l0 -328 33 0 c18 0 38 5 45 12 17
17 17 629 0 646 -13 13 -60 16 -71 5z"/>
<path d="M6043 1003 c-10 -3 -13 -38 -13 -125 l0 -119 -31 22 c-71 50 -188 28
-236 -43 -50 -74 -56 -239 -12 -317 32 -58 77 -84 145 -84 41 0 63 6 94 27 48
32 48 32 52 4 2 -19 9 -23 38 -23 l35 0 3 324 c2 253 -1 326 -10 333 -14 8
-46 9 -65 1z m-55 -309 l42 -36 0 -82 c0 -82 0 -82 -37 -118 -46 -43 -75 -54
-112 -38 -78 32 -95 217 -26 286 36 36 82 32 133 -12z"/>
<path d="M3790 965 c-7 -8 -12 -26 -12 -40 0 -48 38 -69 83 -45 22 12 27 68 7
88 -17 17 -63 15 -78 -3z"/>
<path d="M4153 954 c-53 -19 -112 -76 -143 -140 -22 -44 -25 -62 -25 -169 0
-111 2 -124 27 -170 52 -99 114 -135 231 -135 60 0 83 5 128 27 47 25 54 32
57 62 2 18 0 37 -5 42 -5 5 -35 -5 -68 -22 -50 -26 -69 -30 -116 -27 -72 5
-110 32 -138 99 -27 61 -31 170 -10 239 18 60 75 116 127 125 46 7 102 -6 151
-35 41 -26 61 -20 61 19 0 79 -158 127 -277 85z"/>
<path d="M1995 938 c-3 -13 -4 -151 -3 -308 l3 -285 40 0 40 0 5 250 c3 138 8
243 11 235 4 -8 46 -116 94 -240 48 -124 92 -231 98 -238 6 -7 25 -12 45 -10
l34 3 92 230 c51 127 96 239 102 250 6 13 11 -62 14 -230 l5 -250 40 0 40 0 0
305 0 305 -65 0 -65 0 -21 -45 c-12 -25 -54 -126 -94 -225 -40 -99 -76 -184
-80 -188 -4 -4 -46 93 -94 215 -48 123 -95 229 -104 236 -8 6 -42 12 -74 12
-51 0 -58 -2 -63 -22z"/>
<path d="M2895 791 c-83 -38 -118 -106 -118 -226 0 -130 52 -202 160 -225 88
-19 208 11 219 55 10 42 -8 51 -67 32 -123 -40 -219 2 -219 97 l0 25 148 3
147 3 3 60 c2 48 -2 70 -21 105 -43 82 -158 115 -252 71z m134 -65 c28 -15 51
-53 51 -86 0 -19 -8 -20 -105 -20 -116 0 -120 3 -90 60 28 53 90 73 144 46z"/>
<path d="M4848 800 c-50 -15 -90 -52 -115 -107 -22 -47 -25 -65 -21 -143 3
-79 6 -93 33 -132 41 -59 92 -82 177 -81 90 0 150 35 187 107 50 96 36 248
-27 309 -53 51 -154 71 -234 47z m136 -81 c14 -7 33 -28 43 -48 24 -49 23
-154 -1 -199 -32 -61 -129 -79 -179 -35 -67 60 -60 239 12 278 32 17 91 19
125 4z"/>
<path d="M3787 793 c-10 -9 -8 -426 2 -441 5 -8 22 -12 42 -10 l34 3 3 228 2
227 -38 0 c-21 0 -42 -3 -45 -7z"/>
<path d="M5242 617 c3 -177 4 -185 28 -220 45 -66 133 -80 213 -34 l46 27 3
-22 c2 -17 11 -24 34 -26 52 -5 55 5 52 239 l-3 214 -39 3 c-24 2 -42 -2 -47
-10 -5 -7 -9 -79 -9 -159 l0 -145 -27 -26 c-59 -56 -118 -56 -148 1 -12 23
-15 65 -15 186 l0 155 -46 0 -45 0 3 -183z"/>
<path d="M541 359 c-13 -17 -20 -34 -15 -38 12 -10 181 -134 267 -194 l67 -48
151 108 c146 104 150 108 145 138 -13 62 -27 63 -108 3 -136 -101 -176 -128
-187 -128 -11 0 -136 86 -240 164 -43 32 -50 32 -80 -5z"/>
</g>
</svg>
